<svg xmlns="http://www.w3.org/2000/svg">
    <symbol id="boring-machine" viewBox="0 0 512 512">
       <path d="M504.5 401.4H496V191.7h8.5a7.5 7.5 0 0 0 0-15h-32.6V71.8a7.5 7.5 0 1 0-15 0V265h-17.4l.3 15.1h17.1v57.2h-8.5v15.1h8.5V433a7.5 7.5 0 0 0 15 0v-16.6h32.6a7.5 7.5 0 0 0 0-15zm-23.6 0h-9V191.7h9z" fill="#fa0505"/> <path d="M95.9 409.2a7.64 7.64 0 0 0-7.6 7.5 7.49 7.49 0 0 0 7.5 7.5 7.64 7.64 0 0 0 7.6-7.5 7.51 7.51 0 0 0-7.5-7.5zM331.5 411.4a7.48 7.48 0 1 0 5.3-2.2 7.54 7.54 0 0 0-5.3 2.2zM312.7 409.2H120a7.5 7.5 0 1 0 0 15h192.8a7.49 7.49 0 0 0 7.5-7.5 7.58 7.58 0 0 0-7.6-7.5z"/> <path d="M449.3 336.9a8.49 8.49 0 0 1-8.5-8.5v-48.7l-.3-15.1a15.54 15.54 0 0 0-18.1-12.4 21.72 21.72 0 0 0-2.4.7L327 286a39.59 39.59 0 0 0-38.3-29.4h-64.3a15.68 15.68 0 0 0-15.6 15.6v8.5H15.6A15.68 15.68 0 0 0 0 296.3v88.4a15.73 15.73 0 0 0 15.6 15.5H69a31.61 31.61 0 0 0 26.9 48.2h240.9a31.6 31.6 0 1 0 0-63.2h-8.5v-51.4l97.4-34.7v29.5a23.56 23.56 0 0 0 23.5 23.6h.1zm-136.1-40.7v62.4l-23.3-6.6a24.75 24.75 0 0 1-17.9-23.7v-56.7h16.6a24.58 24.58 0 0 1 24.6 24.6zM15.1 384.6v-64.8h16.6a7.5 7.5 0 1 0 0-15H15.1v-8.5a.46.46 0 0 1 .4-.5h200.9a8.49 8.49 0 0 1 8.5 8.5v.5H63.7a7.5 7.5 0 0 0 0 15h161.1v65.3H15.6a.47.47 0 0 1-.5-.5zm338.3 32.1a16.69 16.69 0 0 1-16.6 16.6H95.9a16.6 16.6 0 0 1 0-33.2h240.9a16.62 16.62 0 0 1 16.6 16.6zm-113.5-31.6v-80.9a23.77 23.77 0 0 0-16.1-22.4v-9.7a.46.46 0 0 1 .4-.5H257v56.7a39.87 39.87 0 0 0 28.7 38.1l27.5 7.8V385h-73.3zM425.4 283l-97.1 34.7v-16.3L425 267a.44.44 0 0 1 .5.1.52.52 0 0 1 .2.4v15.2a.32.32 0 0 1-.3.3z"/> 
    </symbol>
    <symbol id="case" viewBox="0 0 460 460">
       <path d="M422.5 88.51H300.83V31.88a7.5 7.5 0 0 0-7.5-7.5H166.67a7.5 7.5 0 0 0-7.5 7.5v56.63H37.5A37.54 37.54 0 0 0 0 126v272.12a37.54 37.54 0 0 0 37.5 37.5h385a37.54 37.54 0 0 0 37.5-37.5V126a37.54 37.54 0 0 0-37.5-37.49zm0 332.11h-31.79v-31.79a22.52 22.52 0 0 1 22.5-22.5H445v31.79a22.53 22.53 0 0 1-22.5 22.5zm-385-317.11h31.79v31.79a22.52 22.52 0 0 1-22.5 22.5H15V126a22.52 22.52 0 0 1 22.5-22.49zm-7.5 69.3v178.52H15V172.81zm392.5 148.52a7.5 7.5 0 0 0-7.5 7.5v22.5h-1.79a37.54 37.54 0 0 0-37.5 37.5v1.79H84.29v-1.79a37.54 37.54 0 0 0-37.5-37.5H45V172.81h1.79a37.54 37.54 0 0 0 37.5-37.5v-1.79h22.5a7.5 7.5 0 1 0 0-15h-22.5v-15h291.42v15H136.79a7.5 7.5 0 0 0 0 15h238.92v1.79a37.54 37.54 0 0 0 37.5 37.5H415v126a7.5 7.5 0 1 0 15 0v-126h15v178.52h-15v-22.5a7.5 7.5 0 0 0-7.5-7.5zM445 157.81h-31.79a22.52 22.52 0 0 1-22.5-22.5v-31.8h31.79A22.52 22.52 0 0 1 445 126zM15 366.33h31.79a22.52 22.52 0 0 1 22.5 22.5v31.79H37.5a22.52 22.52 0 0 1-22.5-22.5zm69.29 39.3h291.42v15H84.29zM285.83 39.38v15H174.17v-15zm-111.66 30h111.66v19.13H174.17z"/> 
    </symbol>
    <symbol id="check-mark" viewBox="0 0 512 512">
       <path d="M316.3 288.6v127.9h127.9V288.6zm112.2 112.2h-96.6v-96.6h96.6z" fill="#fa0505"/> <path fill="#fa0505" d="M406.8 322.9l-34.6 34.6-10.5-10.5-11.1 11 21.6 21.6 45.6-45.6-11-11.1z"/> <path d="M131.9 0v79.8h200V0zm184.4 64.1H147.5V15.6h168.7v48.5zM339.9 31.5v15.6h39.6v233.5h15.6V31.5h-55.2z"/> <path d="M379.5 425.5v70.9h-296V47.1h40.6V31.5H67.9V512h327.2v-86.5h-15.6z"/> <path d="M300.3 87.8v39.6H163.7V87.8h-23.9v15.6h8.3V143h167.8v-39.6h8.4V87.8h-24zM163.7 31.5h15.6v15.6h-15.6zM283.6 31.5h15.6v15.6h-15.6zM195 31.5h73v15.6h-73zM324.3 104.5v15.6h23.9v160.5h15.7V104.5h-39.6z"/> <path d="M348.2 425.5v31.3H114.8V120.1h25v-15.6H99.1v367.9h264.8v-46.9h-15.7zM172.1 104.5H292v15.6H172.1z"/> <path d="M139.8 176.4h119.9V192H139.8zM308.6 176.4h24V192h-24z"/> <path fill="#fa0505" d="M139.8 207.6h15.6v15.6h-15.6zM139.8 232.7h15.6v15.6h-15.6zM139.8 256.6h15.6v15.6h-15.6zM139.8 280.6h15.6v15.6h-15.6zM139.8 304.6h15.6v15.6h-15.6zM139.8 329.6h15.6v15.6h-15.6z"/> <path d="M172.1 207.6h39.6v15.6h-39.6zM172.1 232.7h56.3v15.6h-56.3zM172.1 256.6h15.6v15.6h-15.6zM172.1 280.6h80.3v15.6h-80.3zM172.1 304.6h39.6v15.6h-39.6zM172.1 329.6h56.3v15.6h-56.3z"/> <path fill="#fa0505" d="M139.8 408.8H195v15.6h-55.2zM211.7 408.8h16.7v15.6h-16.7zM235.7 408.8h16.7v15.6h-16.7zM259.6 408.8h16.7v15.6h-16.7z"/> 
    </symbol>
    <symbol id="chemistry" viewBox="0 0 480 480">
       <path d="M479.2 140.8l-12.9-9.5-44.8 60.7H232.8V48a24 24 0 0 0 0-48h-112a24 24 0 1 0 0 48v173.9L1.9 428a8 8 0 0 0-1.1 4v8a40 40 0 0 0 40 40h360a40 40 0 0 0 40-40V200a7.7 7.7 0 0 0-1.8-4.8zM409.7 208L308.1 345.6a14.84 14.84 0 0 0-3.1 1.5l-72.2-125.2V208zM112.8 24a8 8 0 0 1 8-8h112a8 8 0 1 1 0 16h-8a8 8 0 0 0-8 8v88h-80V40a8 8 0 0 0-8-8h-8a8 8 0 0 1-8-8zm80 440h-152a24.07 24.07 0 0 1-24-24v-5.9L135.7 228a8 8 0 0 0 1.1-4v-80h80v48h-40a8.05 8.05 0 0 0-7.4 11.2l23.4 54.5V464zm-3.9-256h27.9v16a8 8 0 0 0 1.1 4l75 130a7.44 7.44 0 0 1-5.1 2c-3.6 0-5.1-1.6-8.6-5.4-4.1-4.5-9.6-10.6-20.4-10.6s-16.4 6.1-20.4 10.6c-3.5 3.8-5 5.4-8.6 5.4s-5.1-1.6-8.6-5.4c-2.9-3.2-6.6-7.2-12.4-9.3V256a8.66 8.66 0 0 0-.6-3.2zm19.9 256v-99.2l.6.6c4.1 4.5 9.6 10.6 20.4 10.6s16.4-6.1 20.4-10.6c3.5-3.8 5-5.4 8.6-5.4s5.1 1.6 8.6 5.4c3.8 4.2 9 9.8 18.5 10.5L220.7 464zm128-24a24.07 24.07 0 0 1-24 24h-72.2l63.6-86.2 32.5 56.4v5.8zm88 0a24.07 24.07 0 0 1-24 24h-56.2a39.53 39.53 0 0 0 8.2-24v-8a8 8 0 0 0-1.1-4l-37.1-64.3 2.7-3.7c3.1.2 4.7 1.7 8 5.3 4.1 4.5 9.6 10.6 20.4 10.6s16.4-6.1 20.4-10.6c3.5-3.8 5-5.4 8.6-5.4s5.1 1.6 8.6 5.4c4.1 4.5 9.6 10.6 20.4 10.6s16.4-6.1 20.4-10.6l.6-.6.1 75.3zm0-94.7c-5.8 2-9.5 6.1-12.4 9.3-3.5 3.8-5 5.4-8.6 5.4s-5.1-1.6-8.6-5.4c-4.1-4.5-9.6-10.6-20.4-10.6s-16.4 6.1-20.4 10.6c-3.5 3.8-5 5.4-8.6 5.4s-5.1-1.6-8.6-5.4c-2.4-2.7-5.4-6-9.8-8.2l97.4-132v130.9z"/> <path fill="#fa0505" d="M160.8 432h16v16h-16zM128.8 432h16v16h-16zM96.8 432h16v16h-16zM160.8 400h16v16h-16zM128.8 400h16v16h-16zM96.8 400h16v16h-16zM64.8 432h16v16h-16zM292.8 112a28 28 0 1 0 28 28 28.08 28.08 0 0 0-28-28zm0 40a12 12 0 1 1 12-12 12 12 0 0 1-12 12zM380.8 56a36 36 0 1 0 36 36 36.11 36.11 0 0 0-36-36zm0 56a20 20 0 1 1 20-20 20.06 20.06 0 0 1-20 20zM312.8 0a24 24 0 1 0 24 24 24.07 24.07 0 0 0-24-24zm0 32a8 8 0 1 1 8-8 8 8 0 0 1-8 8z"/> 
    </symbol>
    <symbol id="clock" viewBox="0 0 612 611.66">
       <path d="M587.57 186.71c-32.26-75.22-87.09-129.93-162.95-162.28A300.78 300.78 0 0 0 305.5 0a297.67 297.67 0 0 0-118.79 24.43C111.49 56.69 56.42 111.37 24.09 186.71a305.72 305.72 0 0 0 0 237.91c32.32 75.35 87.4 130.35 162.62 162.62a297.68 297.68 0 0 0 118.79 24.42 300.88 300.88 0 0 0 119.12-24.42c75.85-32.35 130.68-87.4 163-162.62a301.85 301.85 0 0 0 0-237.91zm-48.85 254c-24 41.2-56.93 73.88-98.38 98-41.19 24.03-86.34 36.12-134.84 36.12a259.12 259.12 0 0 1-104.4-21.41c-33.13-14.38-61.73-33.29-85.66-57.21s-43-52.81-57.21-86-21.08-68.24-21.08-104.72q0-72.78 35.81-134.51c24-41.23 56.89-73.95 98-98S257 36.83 305.5 36.83s93.65 12.12 134.85 36.14a269.28 269.28 0 0 1 98.38 98q36.14 61.73 36.14 134.51c-.02 48.53-11.98 93.75-36.15 135.2z"/> <path d="M324.91 302.83V129.49c0-10.37-9-18.74-19.41-18.74-9.7 0-18.4 8.37-18.4 18.74v176a15.29 15.29 0 0 1 .67 2.68q-1 9 5 15.06l100.05 100c6.7 6.7 19.07 6.7 25.76 0 7.69-7.7 7.19-18.86 0-26.1z"/> 
    </symbol>
    <symbol id="delivery-cart" viewBox="0 0 60 60">
       <path d="M59 46h-1V25H48A11.49 11.49 0 1 0 32 9V4H15v42h-4V7a1 1 0 0 0-1-1H7.86a4 4 0 1 0 0 2H9v39a1 1 0 0 0 1 1h7a5 5 0 1 0 6 0h24a5 5 0 1 0 6 0h6a1 1 0 0 0 0-2zM4 9a2 2 0 1 1 1.72-3H5a1 1 0 0 0 0 2h.72A2 2 0 0 1 4 9zm16 46a3 3 0 1 1 3-3 3 3 0 0 1-3 3zm30 0a3 3 0 1 1 3-3 3 3 0 0 1-3 3zm-8-28h3v4h-3zm-.5-21a9.5 9.5 0 1 1-9.5 9.5A9.51 9.51 0 0 1 41.5 6zM35 25h-3v-3a11.56 11.56 0 0 0 3 3zM25 6v4h-3V6zm-8 40V6h3v6h7V6h3v40zm15 0V27h8v6h7v-6h9v19z"/> 
    </symbol>
    <symbol id="delivery-truck" viewBox="0 0 512 512">
       <path d="M199.9 448.5v47.9H312v-47.9zm96.5 32.2h-80.7v-16.4h80.7z"/> <path d="M135.6 183.3v144.3h240.7V183.3zm15.7 128.6V199h88.4v9.3h-24.1V224h64.9v-15.7h-25.1V199h105.2v112.9zM159.6 360.1a23.9 23.9 0 1 0 23.9 23.9 23.9 23.9 0 0 0-23.9-23.9zm0 32.2a8.2 8.2 0 1 1 8.2-8.2 8.24 8.24 0 0 1-8.2 8.2zM352.4 360.1a23.9 23.9 0 1 0 23.9 23.9 23.9 23.9 0 0 0-23.9-23.9zm0 32.2a8.2 8.2 0 1 1 8.2-8.2 8.11 8.11 0 0 1-8.2 8.2z" fill="#fa0505"/> <path d="M191.6 392.6h128.8v15.7H191.6zM191.6 368.6h128.8v15.7H191.6zM191.6 344.5h128.8v15.7H191.6zM312.3 271.7a32 32 0 0 0-32 32H296a16.3 16.3 0 0 1 32.6 0h15.7a32 32 0 0 0-32-32zM159.1 473.3v23h-32.4v-23H111V512h63.8v-38.7h-15.7zM384.2 473.3v23h-32.4v-23h-15.7V512H400v-38.7h-15.8z"/> <path d="M456.7 319.6v-80h-47.9v48.3h-8.4V159.2H111.5v128.7h-8.4v-48.3H55.3v80h47.9v-15.9h8.4v121.5H94.2V465h97.4v-15.7h-81.7v-8.4H401v8.4h-80.6V465h96.3v-39.8h-16.2V303.6h8.4v15.9h47.8zm-32.1-64.3H441v48.6h-16.4zM87.4 303.9H71v-48.6h16.4zm297.4 121.2H127.2V174.9h257.5l.1 250.2z"/> <path d="M85.8 401v-56.5H70.1v72.2h33.5V401H85.8zM425.1 344.5V401h-16.8v15.7h32.5v-72.2h-15.7z"/> <path fill="#fa0505" d="M70.1 24.1v207.3h15.7V39.8h339.3v191.6h15.7V24.1H70.1z"/> <path d="M70.1 0h370.7v15.7H70.1zM135.1 136.1h16.8v15.7h-16.8zM167.5 136.1h15.7v15.7h-15.7zM328.8 136.1h15.7v15.7h-15.7zM360.2 136.1H377v15.7h-16.8zM167.5 287.9h63.9v15.7h-63.9zM239.8 287.9h16.8v15.7h-16.8z"/> 
    </symbol>
    <symbol id="excavator" viewBox="0 0 500 500">
       <path d="M63.12 313.12h8a7.45 7.45 0 1 0 0-14.91h-8a7.45 7.45 0 1 0 0 14.91zM63.12 337h8a7.45 7.45 0 1 0 0-14.91h-8a7.45 7.45 0 1 0 0 14.91z"/> <path d="M484.1 296a23.35 23.35 0 0 0 12.72-33.89L370.08 22.59a31.31 31.31 0 0 0-54.37-5.07L194.43 179.23a43.36 43.36 0 0 0-5.07-.3h-54.57a39.28 39.28 0 0 0-39.26 39.26v48.21H47.22a23.33 23.33 0 0 0-23.36 23.36v55.66a23.33 23.33 0 0 0 23.36 23.36h64.12v16.9h78.53v-16.9H254a7.51 7.51 0 0 0 7.46-7.45V337h9.44a.9.9 0 0 0 .5-.1c.1 0 .3-.1.4-.1a.37.37 0 0 0 .3-.1.35.35 0 0 0 .2-.1c.2-.1.3-.1.4-.2h.1a7.42 7.42 0 0 0 1.19-.7c.1-.1.2-.1.3-.2s.2-.1.3-.2l.3-.3c.1-.1.2-.1.2-.2l.2-.2.3-.3.1-.1a2.17 2.17 0 0 0 .3-.5c0-.1.1-.1.1-.2a.75.75 0 0 0 .2-.4 7.28 7.28 0 0 0 .8-2.48c0-.3.1-.7.1-1v-28.43a71.35 71.35 0 0 0-11.93-39.46L253.38 244l81.91-137.46 121 179.21A23.62 23.62 0 0 0 469 296.22M95.43 353.87H47.22a8.44 8.44 0 0 1-8.45-8.45v-55.66a8.44 8.44 0 0 1 8.45-8.45h48.21zm246-335a16.39 16.39 0 0 1 14.31 8.35 3.53 3.53 0 0 0 .4.89l.5.89a16 16 0 0 1 1.19 6.26 16.38 16.38 0 0 1-2.39 8.45c0 .1-.1.1-.1.2l-.3.5a16.37 16.37 0 1 1-13.62-25.54zm-215.19 366.8v-16.9H175v16.9zm120.28-31.81H110.34V218.19a24.32 24.32 0 0 1 16.9-23.19v107a22.72 22.72 0 0 0 13.32 20.57A165.09 165.09 0 0 0 208.15 337h38.37zm15.9-52.78v21h-54.27a153.34 153.34 0 0 1-26.24-2.29v-101.6a7.46 7.46 0 0 0-14.91 0v98.2a151.19 151.19 0 0 1-20.38-7.39 7.53 7.53 0 0 1-4.47-6.86v-108.3h47.12a24.47 24.47 0 0 1 20.28 10.83l43.54 65.2a56.9 56.9 0 0 1 9.34 31.22zm-18-70.87L222 196.43a40.74 40.74 0 0 0-12.72-12L312.33 46.84a31.39 31.39 0 0 0 29.13 19.78h.4zm213 30.32L343.94 92.26 367.8 52.2a8.74 8.74 0 0 0 .6-1L474 250.6a23.83 23.83 0 0 0-16.54 9.94zm19.18 21.77a8.45 8.45 0 1 1 8.45-8.45 8.44 8.44 0 0 1-8.41 8.45z"/> <g fill="#fa0505"> <path d="M31.81 440.84a23.36 23.36 0 1 0 35.09-20.18 23.09 23.09 0 0 0-11.73-3.18 23.33 23.33 0 0 0-23.36 23.36zm31.81 0a8.43 8.43 0 1 1-4.27-7.36 8.55 8.55 0 0 1 4.27 7.36zM118.79 464.19a23.34 23.34 0 0 0 11.73-43.53 23.09 23.09 0 0 0-11.73-3.18 23.36 23.36 0 1 0 0 46.72zm0-31.81a8.43 8.43 0 0 1 4.17 1.09 8.46 8.46 0 1 1-4.17-1.09zM182.41 464.19a23.34 23.34 0 0 0 11.73-43.53 23.09 23.09 0 0 0-11.73-3.18 23.36 23.36 0 1 0 0 46.72zm0-31.81a8.43 8.43 0 0 1 4.17 1.09 8.46 8.46 0 1 1-4.17-1.09zM246 464.19a23.34 23.34 0 0 0 11.73-43.53 23.09 23.09 0 0 0-11.73-3.18 23.36 23.36 0 1 0 0 46.72zm0-31.81a8.43 8.43 0 0 1 4.17 1.09 8.46 8.46 0 1 1-4.17-1.09z"/> <path d="M469.18 296v12.32L467 303a7.59 7.59 0 0 0-4-4.08 7.46 7.46 0 0 0-5.67-.1l-101.89 41-17.59-14.51a7.48 7.48 0 1 0-9.54 11.53l55.07 45.32a55.14 55.14 0 0 0 55.67 8.65l25.35-10.24a31.37 31.37 0 0 0 19.38-25.25 5.79 5.79 0 0 0 .3-1.89V296m-372.75 89.67H55.17a55.16 55.16 0 1 0 0 110.33H246a55.16 55.16 0 1 0 0-110.33h-56.14m269-19l-25.36 10.26a40.45 40.45 0 0 1-40.66-6.26l-24.35-20.08 87.38-35.09 12 30a16.13 16.13 0 0 1-9.02 21.19zM246 400.58a40.25 40.25 0 1 1 0 80.51H55.17a40.25 40.25 0 1 1 0-80.51zm-71-14.91h-48.76"/> </g> 
    </symbol>
    <symbol id="eye" viewBox="0 0 612 612">
       <path d="M601.54 278.75c-6.59-7.76-13.57-15-20.27-21.61-38.84-38.27-80.54-70.24-126.63-94.06-33-17.06-65.41-28.3-96.72-33.9a290.49 290.49 0 0 0-51.51-4.32 287.17 287.17 0 0 0-52.52 4.32c-31.66 5.84-64.08 17.1-96.72 33.9-44.81 23.08-86.8 54.79-126.63 94.06-7.7 7.59-14.35 14.57-20.27 21.61-13.69 16.24-13.67 37.59 0 53.84C26.5 351.9 48.2 372.07 75.4 393.74q86.83 69.16 170.18 87.44a290.38 290.38 0 0 0 60.82 6 285.37 285.37 0 0 0 59.82-6q84.32-18.18 170.84-87.44c29-23.19 50.1-43.89 64.48-61.16 13.87-16.63 14.03-37.32 0-53.83zm-27.92 29.91c-14.63 18-34.84 36.55-59.83 56.51C461.35 407 409.82 434.25 358.58 445a256.1 256.1 0 0 1-52.18 5.32h-1a248.14 248.14 0 0 1-51.52-5.32Q178 428.79 98 365.16q-37.69-30-59.16-56.51-3.49-2.49 0-6a99 99 0 0 1 8.64-10c4.24-4.4 7.32-7.64 9-9.64 38.52-37.84 77.91-66.41 117.64-86.36 31.74-15.95 60.5-26.49 86.41-30.92a272.44 272.44 0 0 1 45.87-4 262.61 262.61 0 0 1 45.53 4c26.27 4.59 55.1 15.11 86.42 30.92 40.47 20.42 79.44 48.85 117 86.41q13 13 18.28 19.61c1.78 2.24 1.65 4.33-.01 5.99z"/> <path d="M306.4 189c-32.24 0-60.16 11.29-83.1 34.23s-34.23 50.53-34.23 82.77 11.22 59.58 34.23 82.43c22.85 22.69 50.85 33.9 83.1 33.9s59.49-11.3 82.1-33.9c22.93-22.93 34.23-50.19 34.23-82.43s-11.39-59.74-34.23-82.76C365.8 200.39 338.63 189 306.4 189zm56.16 173.5c-15.62 15.62-34.23 23.26-56.17 23.26-22.27 0-41.22-8-56.84-23.6S226 327.6 226 306c0-22.26 8-40.88 23.6-56.5s34.57-23.6 56.84-23.6 40.79 8.05 56.17 23.6c15.54 15.71 23.27 34.23 23.27 56.5-.05 21.94-7.7 40.88-23.32 56.5z"/> 
    </symbol>
    <symbol id="fireworks" viewBox="0 0 512 512">
       <path d="M374.635 165.608l5.336-14.66 21.613 7.867-5.336 14.66zM313.368 228.357l5.336-14.66 20.955 7.628-5.336 14.659zM250.003 290.43l5.336-14.659 21.425 7.799-5.336 14.659zM347.994 70.343l11.03-11.03 18.456 18.455-11.03 11.03z"/> <path d="M293.9 16.2l46.7 46.7 11.1-11.1-22.5-22.4 165.9-11.8-8.8 123.2-32.9-32.9-11 11.1 42.5 42.5-1.6 22L384.9 85l-11.1 11.1 18.7 18.7L346 97.9l-5.4 14.7 77.9 28.3v-.1l12.1 12.1-44.6 44.6-103.3-37.6-5.4 14.7 96.5 35.1-50.2 50.2-103.5-37.7-5.3 14.7 96.6 35.2-48.3 48.2-39.5-39.5 16.5 6 5.4-14.7-48.1-17.5-11.7-11.7 44.7-44.7 71.4 26 5.4-14.7-64.6-23.5 50.2-50.2 71 25.9 5.3-14.7-64.1-23.4L343.5 85l-11-11-168.9 168.9 14.8 14.8-60 60.5 11.1 11.1 60-60.5 10.6 10.6-21.4 21.4 11.1 11.1 21.3-21.4 11.1 11-118 118 11.1 11.1 118-118 7.9 8-38.8 38.8 11.1 11.1 38.8-38.9 10.8 10.9L441.6 164l54.9 54.8L512 .7 293.9 16.2z"/> <path d="M416.552 93.157l11.031-11.03 18.456 18.455-11.031 11.03zM67.3 456.4l-11.1-11L175 326.6l-11.1-11.1L34.1 445.4l33.2 33.1 33.2-33.1-11.1-11.1-22.1 22.1zM.017 352.658l40.185-40.707 11.102 10.96-40.185 40.706z"/> <path fill="#fa0505" d="M376.06 261.396l37.052-37.053 11.031 11.031-37.052 37.052z"/> <path d="M251.845 385.48l104.298-104.298 11.031 11.03-104.298 104.3zM279.082 423.618l37.052-37.053 11.031 11.031-37.052 37.053zM202.344 500.245l56.852-56.851 11.03 11.03-56.85 56.852z"/> <path fill="#fa0505" d="M201.879 143.022l37.052-37.052L249.962 117l-37.052 37.053z"/> <path d="M125.142 219.65l56.851-56.851 11.03 11.03-56.85 56.852zM87.596 499.193l59.962-59.963 11.031 11.031-59.962 59.963z"/> <path d="M81.6 221.2H67c-8.1 20.4-13.8 26.1-34.2 34.2V270c20.4 8.1 26.1 13.9 34.2 34.2h14.5c8.1-20.4 13.8-26.1 34.2-34.2v-14.5c-20.3-8.1-26-13.9-34.1-34.3zM74.3 283a51.63 51.63 0 0 0-20.2-20.2 51.63 51.63 0 0 0 20.2-20.2 51.63 51.63 0 0 0 20.2 20.2A51 51 0 0 0 74.3 283zM211 378.7h-14.5c-8.1 20.4-13.8 26.1-34.2 34.2v14.5c20.4 8.1 26.1 13.8 34.2 34.2H211c8.1-20.4 13.8-26.1 34.2-34.2V413c-20.3-8.1-26.1-13.9-34.2-34.3zm-7.3 61.8a51.63 51.63 0 0 0-20.2-20.2 51.63 51.63 0 0 0 20.2-20.2 51.63 51.63 0 0 0 20.2 20.2 52.29 52.29 0 0 0-20.2 20.2zM131.9 167.4c-14.3-5.7-18.1-9.5-23.8-23.8H93.6c-5.7 14.3-9.5 18.1-23.8 23.8v14.5c14.3 5.7 18.1 9.5 23.8 23.8h14.5c5.7-14.3 9.5-18.1 23.8-23.8v-14.5zm-31 18.1a39.65 39.65 0 0 0-10.8-10.8 39.65 39.65 0 0 0 10.8-10.8 39.65 39.65 0 0 0 10.8 10.8 39.65 39.65 0 0 0-10.8 10.8zM307 445.5h-14.5c-5.7 14.3-9.5 18.1-23.8 23.8v14.5c14.3 5.7 18.1 9.5 23.8 23.8H307c5.7-14.3 9.5-18.1 23.8-23.8v-14.5c-14.3-5.7-18.1-9.5-23.8-23.8zm-7.3 41.9a39.65 39.65 0 0 0-10.8-10.8 39.65 39.65 0 0 0 10.8-10.8 39.65 39.65 0 0 0 10.8 10.8 38.3 38.3 0 0 0-10.8 10.8z" fill="#fa0505"/> 
    </symbol>
    <symbol id="freight" viewBox="0 0 512 512">
       <path d="M232.4 359.6v144.1H505V359.6zm256.9 128.5H248V375.3h241.3v112.8z"/> <path d="M296.1 392h15.7v81.4h-15.7zM264.8 392h15.7v81.4h-15.7zM328.4 392h15.7v81.4h-15.7zM360.8 392h15.7v81.4h-15.7zM393.1 392h15.7v81.4h-15.7zM424.4 392h15.7v81.4h-15.7zM456.8 392h15.7v81.4h-15.7z"/> <path fill="#fa0505" d="M489.1 336.7v-9.4h-15.6v9.4H262.7v-9.4H247v9.4h-14.6v15.6h272.4v-15.6h-15.7zM387.6 215.6h-11.2v-16.7h-15.6v16.7h-11L247 299.5v19.4h15.7v-12l92.7-75.6h26.5l91.6 75.6v12h15.6v-19.4l-101.5-83.9z"/> <path d="M87.6 102.7a31.9 31.9 0 1 0 31.9 31.9 31.92 31.92 0 0 0-31.9-31.9zm0 48.2a16.3 16.3 0 1 1 16.3-16.3 16.3 16.3 0 0 1-16.3 16.3z"/> <path fill="#fa0505" d="M360.8 78.9h15.7v111.7h-15.7zM55.7 183v87.9h63.8V183zm48.2 72.3H71.4v-56.6h32.5z"/> <path d="M384.3 15.7a23.88 23.88 0 0 0-30.6-14.3l-.1.1-227.7 92.8a55.05 55.05 0 0 0-77.8.8 56.16 56.16 0 0 0-16 39.5V344H54v6.3H35.5L7 389v123h15.7V400.3h39.7v-15.7H29.6l13.8-18.8h88.4l13.5 18.8h-33.9v15.7h40.7V512h15.7V389l-27.9-38.8h-21.1V344h24v-63.7h64.7v-92.8l-44.3-43.9h-20.4V139l218.1-88.9v20.5h15.7V42.8a23.93 23.93 0 0 0 7.7-27.1zM103 350.3H69.6V344H103v6.3zm24-22H47.7V134.6c0-22.6 17.4-40.4 39.7-40.4S127 112 127 134.6v193.7zm40.7-158.1l24 23.8v21.6h-24zm-15.6-10.9v72h39.7v33.4h-49V159.3zM364.7 31.6l-.1.1-223.2 90.9a56 56 0 0 0-5.7-15.4l223.5-91.1a8.22 8.22 0 0 1 5.5 15.5z"/> <path d="M71.7 280.3h33.4V296H71.7zM71.7 303.3h33.4V319H71.7zM71.7 376.3h33.4V392H71.7zM71.7 401.4h33.4v15.7H71.7zM71.7 423.3h33.4V439H71.7zM71.7 448.3h33.4V464H71.7zM71.7 473.4h33.4v15.7H71.7zM71.7 496.4h33.4v15.7H71.7zM80.1 126.9h16.7v15.7H80.1z"/> 
    </symbol>
    <symbol id="fuel" viewBox="0 0 120 120">
       <path d="M105 107.8h-2.2V12.2h2.2A6.1 6.1 0 0 0 105 0H15a6.1 6.1 0 0 0 0 12.2h2.2v31.3a1.9 1.9 0 0 0 1.9 1.9 2 2 0 0 0 1.9-1.9v-6.3h20.6a2 2 0 0 0 0-3.9H21v-21h78v21H78.4a2 2 0 0 0 0 3.9H99v45.9H80.4a2 2 0 0 0 0 3.9H99v21H21V87h20.6a2 2 0 0 0 0-3.9H21V51.7a1.9 1.9 0 0 0-1.9-1.9 2 2 0 0 0-1.9 1.9v56.1H15a6.1 6.1 0 1 0 0 12.2h90a6.1 6.1 0 1 0 0-12.2zM15 8.3a2.2 2.2 0 0 1 0-4.4h90a2.2 2.2 0 0 1 0 4.4zm90 107.8H15a2.2 2.2 0 1 1 0-4.4h90a2.2 2.2 0 0 1 0 4.4z"/> <path d="M70.8 44.7c-4.6-7-9.1-12.6-9.3-12.9a2 2 0 0 0-2.7-.3l-.2.2c-.2.2-4.7 5.9-9.3 12.9-6.3 9.6-9.5 16.9-9.5 21.5a20.3 20.3 0 1 0 40.6 0c-.1-4.6-3.3-11.8-9.6-21.4zM60 82.9a16.69 16.69 0 0 1-16.5-16.7c0-7.2 10.8-22.7 16.5-30 5.7 7.4 16.5 22.8 16.5 30A16.56 16.56 0 0 1 60 82.9z" fill="#fa0505"/> <path d="M69.6 74.2a1.91 1.91 0 0 0-2.7-.2 10.49 10.49 0 0 1-6.9 2.7 2 2 0 0 0 0 3.9 13.57 13.57 0 0 0 9.4-3.7 1.91 1.91 0 0 0 .2-2.7zM65.8 48.2a1.93 1.93 0 0 0-2.6-.6 1.93 1.93 0 0 0-.5 2.7c7.7 11.8 7.8 15.6 7.8 15.8a10.3 10.3 0 0 1-.6 3.5 2 2 0 0 0 1 2.4 1.87 1.87 0 0 0 2.5-1 15.58 15.58 0 0 0 .8-4.8c0-1.5-.8-6.4-8.4-18z" fill="#fa0505"/> 
    </symbol>
    <symbol id="gas-mask" viewBox="0 0 512 512">
       <path d="M256 249.7a83.9 83.9 0 1 0 83.9 83.9 84 84 0 0 0-83.9-83.9zm8.8 52.2a32.84 32.84 0 0 1 19.8 47.9L264.8 330v-28.1zm7.4 60.3a32.67 32.67 0 0 1-32.4 0L256 346zm-25-32.3l-19.8 19.8a32.84 32.84 0 0 1 19.8-47.9v28.1zm-43.9 43.9a66.23 66.23 0 0 1 43.9-106v16.1a50.39 50.39 0 0 0-32.5 78.5zm52.7 26.1a66 66 0 0 1-40.3-13.7l11.4-11.4a50.44 50.44 0 0 0 57.8 0l11.4 11.4a66 66 0 0 1-40.3 13.7zm52.7-26.1l-11.4-11.4a50.39 50.39 0 0 0-32.5-78.5v-16.1a66.23 66.23 0 0 1 43.9 106z" fill="#fa0505"/> <path d="M511.5 337.7a8.84 8.84 0 0 0-4.6-4.9l-54.4-24.9a8.75 8.75 0 0 0-11.6 4.3l-11.7 25.5-15.8-7.3a161.29 161.29 0 0 0 4.9-39.5v-1.7a52.88 52.88 0 0 0 25.4-38.7 381.47 381.47 0 0 0 3.1-68.4 69.74 69.74 0 0 0-21.8-47.7 75.77 75.77 0 0 0-8.4-6.8 168.88 168.88 0 0 0-28.3-51.4l10.6-10.6a8.81 8.81 0 0 0 0-12.4l-30.4-30.4a9 9 0 0 0-6.2-2.6 8.54 8.54 0 0 0-6.2 2.6l-13.7 13.7a169.46 169.46 0 0 0-172.7-.1L156 22.7a9 9 0 0 0-6.2-2.6 8.54 8.54 0 0 0-6.2 2.6l-30.4 30.4a8.81 8.81 0 0 0 0 12.4l10.6 10.6a168.88 168.88 0 0 0-28.3 51.4A69.2 69.2 0 0 0 65.2 182a381.89 381.89 0 0 0 3.1 68.4 53.16 53.16 0 0 0 25.4 38.7v1.7a160.68 160.68 0 0 0 4.9 39.5l-15.8 7.3-11.7-25.5a8.75 8.75 0 0 0-11.6-4.3L5.1 332.7a8.84 8.84 0 0 0-4.6 4.9 9.12 9.12 0 0 0 .2 6.7L69.3 494a8.87 8.87 0 0 0 8 5.1 9 9 0 0 0 3.6-.8l54.4-24.9a8.84 8.84 0 0 0 4.6-4.9 9.12 9.12 0 0 0-.2-6.7L128 436.3l32.1-14.7a161.84 161.84 0 0 0 191.6 0l32.1 14.7-11.7 25.5a8.23 8.23 0 0 0-.2 6.7 8.84 8.84 0 0 0 4.6 4.9l54.4 24.9a9.37 9.37 0 0 0 3.6.8 8.87 8.87 0 0 0 8-5.1l68.6-149.7a8 8 0 0 0 .4-6.6zm-82.2-154.9a355.31 355.31 0 0 1-3 65.2 35.9 35.9 0 0 1-21.9 28.5 36.54 36.54 0 0 1-36.2-4.3q-7.2-5.4-14.1-10.5l37.5-59.9a8.62 8.62 0 0 0 .2-8.9 8.83 8.83 0 0 0-7.7-4.5h-24.4l36.2-52.1a52.26 52.26 0 0 1 33.4 46.5zm-94 18.5a8.74 8.74 0 0 0 7.8 4.7h25.3l-28.2 45c-18.9-14.8-35.4-28.7-49.2-41.4-11.7-10.9-16.1-26.5-11.5-41.8a40.1 40.1 0 0 1 32.1-28.7 412.66 412.66 0 0 1 64.7-6.2h.7l-41.2 59.4a8.8 8.8 0 0 0-.5 9zm26.8-160l18 18L359 80.4l-18-18zm-212.2 0L171 62.4l-18 18-21.1-21.1zM85.7 248.1a364.79 364.79 0 0 1-3-65.2 52.06 52.06 0 0 1 52.2-50h.7c9.8.1 19.8.7 29.9 1.6l-40.1 57.8a8.76 8.76 0 0 0 7.2 13.8H158l-45.3 72.3a43.56 43.56 0 0 1-5.1-1.7 36.39 36.39 0 0 1-21.9-28.6zm95.8-55.1a8.71 8.71 0 0 0-7.7-4.5h-24.4l35.9-51.8c5 .7 10.1 1.5 15.1 2.4a40 40 0 0 1 32.1 28.7 40.47 40.47 0 0 1-11.5 41.8c-20.3 18.7-46.3 39.8-77.3 62.7a37.08 37.08 0 0 1-9.8 5.2l47.3-75.6a8.86 8.86 0 0 0 .3-8.9zM81.7 478.8L20.4 345l38.5-17.6 61.3 133.8zm39.1-58.4l-30.6-66.8 13.8-6.3a162.5 162.5 0 0 0 41.3 62zM256 435.5c-78 0-141.8-62.1-144.6-139.5a54.5 54.5 0 0 0 10.6 1.1 53.39 53.39 0 0 0 32.1-10.7c31.5-23.2 58-44.8 78.8-63.9a58.45 58.45 0 0 0-29.4-100.6 424.54 424.54 0 0 0-67.5-6.5 67.87 67.87 0 0 0-17.4 2 152.41 152.41 0 0 1 17.8-28.7L146.7 99a9 9 0 0 0 6.2 2.6 8.54 8.54 0 0 0 6.2-2.6l30.4-30.4a8.81 8.81 0 0 0 0-12.4l-7-7A152.76 152.76 0 0 1 256 30.4a151.08 151.08 0 0 1 73.4 18.9l-7 7a8.81 8.81 0 0 0 0 12.4L352.9 99a9 9 0 0 0 6.2 2.6 8.54 8.54 0 0 0 6.2-2.6l10.4-10.4a149.29 149.29 0 0 1 17.8 28.7 72 72 0 0 0-17.4-2 423.43 423.43 0 0 0-67.5 6.5 58.45 58.45 0 0 0-29.4 100.6c20.7 19.2 47.2 40.7 78.8 63.9a53.82 53.82 0 0 0 32.1 10.7 54.5 54.5 0 0 0 10.6-1.1C397.8 373.4 334 435.5 256 435.5zm110.8-26.3a161.74 161.74 0 0 0 41.3-62l13.8 6.3-30.6 66.8zm63.5 69.6l-38.5-17.6 61.3-133.8 38.5 17.6z"/> 
    </symbol>
    <symbol id="gas" viewBox="0 0 470 470">
       <g fill="#fa0505"> <path d="M302.1 89V7.5a7.55 7.55 0 0 0-7.5-7.5H175.4a7.55 7.55 0 0 0-7.5 7.5V89A95.49 95.49 0 0 0 80 184.1v187.1a68.89 68.89 0 0 0 61.3 68.4v22.9a7.55 7.55 0 0 0 7.5 7.5h172.3a7.55 7.55 0 0 0 7.5-7.5v-22.9a69 69 0 0 0 61.3-68.4V184.1c.1-50-38.7-91.2-87.8-95.1zm-15-74v73.7h-44.6v-17a21.2 21.2 0 1 0-15 0v17.1h-44.6V15zM235 58.1a6.2 6.2 0 1 1 6.2-6.2 6.23 6.23 0 0 1-6.2 6.2zm-59.6 45.6h119.2a80.59 80.59 0 0 1 80.1 72.9H147.5a7.5 7.5 0 0 0 0 15H375v172.1H95V191.6h22.5a7.5 7.5 0 0 0 0-15H95.4a80.49 80.49 0 0 1 80-72.9zM156.3 455v-15h157.3v15zm164.9-30H148.8a54 54 0 0 1-53.3-46.3h278.9a53.71 53.71 0 0 1-53.2 46.3z"/> <path d="M235 348.7c16.1 0 30.2-5.6 40.7-16.2 10.9-11 17-26.6 16.9-42.8-.2-30.1-21.6-57-22.5-58.1a7.54 7.54 0 0 0-6.1-2.8 7.4 7.4 0 0 0-5.9 3.2s-.6.9-1.5 2.1c-3.7-8-9.1-17.8-16.3-25.1a7.49 7.49 0 0 0-10.8 0c-7.2 7.4-12.6 17.1-16.3 25.1-.9-1.3-1.5-2.1-1.5-2.1a7.5 7.5 0 0 0-12-.4c-.9 1.1-22.2 28-22.5 58.1-.1 16.2 6 31.8 16.9 42.8 10.7 10.6 24.8 16.2 40.9 16.2zm-29.2-99.3l1.8 2.5c2.2 3.1 3.9 5.5 8.1 5.2a7.46 7.46 0 0 0 6.5-4.9c0-.1.1-.2.2-.5a110.4 110.4 0 0 1 12.6-25.9 106.78 106.78 0 0 1 12.6 25.9c.1.3.1.4.2.5a7.43 7.43 0 0 0 8.6 4.7c2.9-.6 3.9-2 6.1-5.1l1.8-2.5c5.6 9.2 13.3 24.6 13.4 40.4.1 12.3-4.5 24-12.6 32.1-7.6 7.7-18 11.8-30 11.8s-22.4-4.1-30-11.8c-8.1-8.1-12.7-19.9-12.6-32.1 0-15.7 7.7-31.1 13.3-40.3z"/> </g> <path d="M302.1 89V7.5a7.55 7.55 0 0 0-7.5-7.5H175.4a7.55 7.55 0 0 0-7.5 7.5V89A95.49 95.49 0 0 0 80 184.1v187.1a68.89 68.89 0 0 0 61.3 68.4v22.9a7.55 7.55 0 0 0 7.5 7.5h172.3a7.55 7.55 0 0 0 7.5-7.5v-22.9a69 69 0 0 0 61.3-68.4V184.1c.1-50-38.7-91.2-87.8-95.1zM182.9 15h104.2v73.7h-44.6v-17a21.2 21.2 0 1 0-15 0v17.1h-44.6zm58.3 36.9a6.2 6.2 0 1 1-6.2-6.2 6.17 6.17 0 0 1 6.2 6.2zM313.7 455H156.3v-15h157.3v15zm61.3-91.3h-.5v15a54 54 0 0 1-53.3 46.3H148.8a54 54 0 0 1-53.3-46.3H95V175.6h.5a80.5 80.5 0 0 1 79.9-71.9h119.2a80.59 80.59 0 0 1 80.1 72.9h-.2v15h.5v172.1z"/> 
    </symbol>
    <symbol id="hand-gesture" viewBox="0 0 512 512">
       <path d="M24 380.1h16.7v15.6H24z"/> <path d="M383 355.6H258.5l-48.4-32.3h30.1a23.8 23.8 0 1 0 0-47.6H96.4v15.6h143.8a8.2 8.2 0 0 1 0 16.4h-79.7v23.8h15.6v-8.2h5.8l71.9 47.9H383a9 9 0 0 1 1 18l-120.2 13.4v-15.3h-15.6v13.5L97.5 355.6h-9.9v-79.8H0v143.9h87.6v-48.4h7.6l160.2 48 130.3-14.5a24.67 24.67 0 0 0-2.7-49.2zM72 404.1H15.6V291.5H72z"/> <path d="M112.6 92.3v175.2h15.6v-8.3h135.6V148.6H128.3v-40.7h368.1v16.7h-95.9v15.6h95.9v231.5H415v15.6h97v-295zm135.6 71.9v79.3H128.3v-79.3z" fill="#fa0505"/> <path fill="#fa0505" d="M143.9 179.9h48v15.6h-48zM143.9 212.2h15.6v15.6h-15.6zM167.9 212.2h15.6v15.6h-15.6zM191.9 212.2h15.6v15.6h-15.6zM215.9 212.2h15.6v15.6h-15.6zM359.9 282.2l-28.3 18.9 8.7 13 12.2-8.1v33.4h15.6v-33l11.5 7.7 8.6-13-28.3-18.9zM423.8 282.2l-28.3 18.9 8.7 13 11.9-7.9v33.2h15.6v-33.2l11.8 7.9 8.6-13-28.3-18.9z"/> <path d="M112.6 92.3v175.2h15.7V107.9h368.1v16.7h-96v15.7h96v231.4H415v15.7h97V92.3H112.6z"/> 
    </symbol>
    <symbol id="import" viewBox="0 0 512 512">
       <path d="M.1 472.3v39.6h15.6V488h312.1v23.9h15.6v-39.6H.1zM311.1 448.4V0H32.3v448.4H24V464h296.5v-15.6zm-15.6 0H47.9V15.6h247.6v432.8z"/> <path d="M112.2 216.4a23.8 23.8 0 1 0 23.8 23.8 23.86 23.86 0 0 0-23.8-23.8zm0 32a8.2 8.2 0 1 1 8.2-8.2 8.24 8.24 0 0 1-8.2 8.2zM104.1 271.5h15.6v25h-15.6zM160.3 120.7h23.9v15.6h-23.9z" fill="#fa0505"/> <path d="M496.1 104.3v36a20.2 20.2 0 0 1-40.4 0v-36h-15.6v36a35.8 35.8 0 1 0 71.6 0v-36z"/> <path d="M480 40.5h-8a31.88 31.88 0 0 0-31.8 31.8h15.6A16.26 16.26 0 0 1 472 56.1h8a16.26 16.26 0 0 1 16.2 16.2v8.2H400v15.6h111.7V72.3A31.8 31.8 0 0 0 480 40.5zM503.9 184.4a71.87 71.87 0 0 0-71.8 71.8v32h15.6v-32a56.26 56.26 0 0 1 48.4-55.6v128.2h-81v-17.7h64.5v-71.8H464v56.2h-40.3v-87.1h-95.6V304h24.6a39.82 39.82 0 0 0 39.1 32.7V321a24.33 24.33 0 0 1-22.9-16.4h30.4v39.7h96.6v39.9h-48.4V352h-15.6v47.8h79.6V184.4zm-95.7 103.9h-64.3v-8.5H360v-15.6h-16.2v-8.3h24.5v-15.6h-24.5V224h24.5v8H384v-8h24.2v64.3z" fill="#fa0505"/> <path d="M503.9 184.4a71.87 71.87 0 0 0-71.8 71.8v32h15.6v-32a56.26 56.26 0 0 1 48.4-55.6v128.2h-81v-17.7h64.5v-71.8H464v56.2h-40.3v-87.1h-.1v95.9H353a39.82 39.82 0 0 0 39.1 32.3V321a24.33 24.33 0 0 1-22.9-16.4h30.4v39.7h96.6v39.9h-48.4V352h-15.6v47.8h79.6V184.4zM511.9 407.8h-79v15.6h7.3V512h15.6v-88.6h56.1v-15.6z"/> <path d="M487.8 432h-15.6a31.88 31.88 0 0 0 31.8 31.8v-15.6a16.13 16.13 0 0 1-16.2-16.2zM144.7 232v15.6h127.9v176.9H71.8V247.6h8.4V232h-24v208.1h232.1V232H144.7z"/> <path d="M56.2 25v183.1h232V25zm216.4 167.5H71.8V40.6h200.8z" fill="#fa0505"/> 
    </symbol>
    <symbol id="insuran" viewBox="0 0 60 60">
       <path d="M60 48V1a.94.94 0 0 0-1-1H15a.94.94 0 0 0-1 1v58a.94.94 0 0 0 1 1h33a.91.91 0 0 0 .7-.3l11-11c.1-.1.1-.2.2-.3v-.1a.37.37 0 0 0 .1-.3zM16 2h42v45H48a.94.94 0 0 0-1 1v10H16zm33 54.6V49h7.6l-3.8 3.8z"/> <path d="M33 37V16h6.6l6.2 7H39v2h8v12h2V24a.91.91 0 0 0-.3-.7l-8-9a.78.78 0 0 0-.7-.3h-7V7a.94.94 0 0 0-1-1H20v2h11v22H20v2h11v4H20v2h12a.94.94 0 0 0 1-1z"/> <path d="M40 34a6 6 0 1 0 6 6 6 6 0 0 0-6-6zm0 10a4 4 0 1 1 4-4 4 4 0 0 1-4 4zM39 28h3v2h-3z"/> <circle cx="40" cy="40" r="2"/> <path fill="#fa0505" d="M45 6h9v2h-9zM42 10h12v2H42zM20 43h6v2h-6zM20 48h14v2H20zM20 53h14v2H20z"/> <path d="M22 12h2v2h-2zM26 12h2v2h-2zM22 16h2v2h-2zM26 16h2v2h-2zM22 20h2v2h-2zM26 20h2v2h-2zM22 24h2v2h-2zM26 24h2v2h-2z"/> <path d="M8.9.7a.93.93 0 0 0-1.8 0L4.2 9.4a.76.76 0 0 0-.2.5V53H2V24H0v30a.94.94 0 0 0 1 1h3v4a.94.94 0 0 0 1 1h6a.94.94 0 0 0 1-1V10a1.07 1.07 0 0 0-.2-.6zM6 11h4v36H6zm2-6.8L9.6 9H6.4zM10 58H6v-9h4z" fill="#fa0505"/> 
    </symbol>
    <symbol id="insurance" viewBox="0 0 60 60">
       <path d="M11 14.5h2a5 5 0 0 0 5-5v-3a5 5 0 0 0-5-5h-2a5 5 0 0 0-5 5v3a5 5 0 0 0 5 5zm-3-8a3 3 0 0 1 3-3h2a3 3 0 0 1 3 3v3a3 3 0 0 1-3 3h-2a3 3 0 0 1-3-3zM22 29.5v7h2v-14a7 7 0 0 0-7-7H7a7 7 0 0 0-7 7v14h2v-7h3v28a.94.94 0 0 0 1 1h12a.94.94 0 0 0 1-1v-28zm-5-6v33h-4v-18h2v-2H9v2h2v18H7v-33H5v4H2v-5a5 5 0 0 1 5-5h4v10h2v-10h4a5 5 0 0 1 5 5v5h-3v-4z"/> <path d="M59 1.5H21a.94.94 0 0 0-1 1v9h2v-8h36V39L40 53.2 21.6 38.7l-1.2 1.6 19 15a1 1 0 0 0 1.2 0l19-15a.91.91 0 0 0 .4-.8v-37a.94.94 0 0 0-1-1z"/> <path d="M25 5.5h2v2h-2zM29 5.5h2v2h-2zM33 5.5h2v2h-2zM37 5.5h2v2h-2zM41 5.5h2v2h-2zM45 5.5h2v2h-2zM49 5.5h2v2h-2zM53 5.5h2v2h-2zM25 9.5h2v2h-2zM29 9.5h2v2h-2zM33 9.5h2v2h-2zM37 9.5h2v2h-2zM41 9.5h2v2h-2zM45 9.5h2v2h-2zM49 9.5h2v2h-2zM53 9.5h2v2h-2z"/> <path d="M40 42.5a11 11 0 1 0-11-11 11 11 0 0 0 11 11zm0-20a9 9 0 1 1-9 9 9 9 0 0 1 9-9z" fill="#fa0505"/> <path d="M38 36.5a.91.91 0 0 0 .7-.3l7-7-1.4-1.4-6.3 6.3-2.3-2.3-1.4 1.4 3 3a.91.91 0 0 0 .7.3z" fill="#fa0505"/> <path d="M36 15.5h8v2h-8z"/> 
    </symbol>
    <symbol id="logo-shaman-art" viewBox="0 0 200 200">
       <path d="M0 99.613l5.657-5.657 5.657 5.657-5.657 5.657zM184.63 85.14l-5.66-5.66L158.45 100l20.65 20.66 5.76-5.56-15.1-15.1 14.87-14.86z"/> <path d="M147.16 111.36l20.45 20.45 5.66-5.66-20.45-20.45 5.63-5.63-5.66-5.66 20.48-20.48-5.66-5.66-20.45 20.44-33.88-33.87 11.24-11.24L100 19 75.42 43.6l11.24 11.24-33.85 33.84-20.44-20.45-5.66 5.66 20.45 20.45-5.6 5.6L20.9 79.35l-5.76 5.56L30.24 100l-14.87 14.87 5.63 5.65 20.46-20.46 5.63 5.63-20.38 20.43 5.66 5.66 20.41-20.41L87 145.6l-11.58 11.59L100 181.74l24.55-24.55-11.62-11.59zM100 147.23l-35.9-35.88L100 75.48l35.87 35.87zM86.73 43.6L100 30.36l13.21 13.24-5.58 5.58-2-2-5.63-5.65-5.66 5.66-2 2zM58.47 94.34l33.84-33.85L98 54.84l2-2 41.5 41.53 5.66 5.66-5.63 5.63L100 64.17 58.44 105.7l-5.66-5.7zm54.73 62.85L100 170.43l-13.27-13.24 5.94-5.94 7.3 7.3 7.3-7.3zM188.696 100.39l5.657-5.657 5.657 5.657-5.657 5.657zM94.315 5.653l5.657-5.657 5.657 5.657-5.657 5.657zM94.319 194.347l5.657-5.657 5.657 5.657-5.657 5.657z"/> <path d="M132.9 63.376l40.616-40.616 5.657 5.657-40.617 40.616zM20.57 28.426l5.657-5.657 40.616 40.616-5.657 5.657zM20.564 172.025l40.617-40.616 5.657 5.657-40.617 40.616zM132.894 137.08l5.657-5.656 40.616 40.616-5.657 5.657zM83 113.24l17 17 17-17-17-17zm17 5.62l-5.62-5.62 5.62-5.62 5.62 5.62z"/> 
    </symbol>
    <symbol id="mail" viewBox="0 0 60 60">
       <path d="M59 4.5H1a.94.94 0 0 0-1 1v37a.94.94 0 0 0 1 1h14v-2H2V7.2l27.5 17.1a.76.76 0 0 0 .5.2c.2 0 .4-.1.6-.1L58 7.4v34.1h-5v2h6a.94.94 0 0 0 1-1v-37a.94.94 0 0 0-1-1zM30 22.3L4.6 6.5h50.9z"/> <path d="M49 34.5H19a.94.94 0 0 0-1 1v13H2v2h16v3H7v2h42a.94.94 0 0 0 1-1v-19a.94.94 0 0 0-1-1zm-3.7 2L34 43.3l-11.5-6.8zM20 53.5V37.3l13.5 8.1a.75.75 0 0 0 .5.1c.2 0 .4 0 .5-.2L48 37.2v16.3zM0 53.5h4v2H0z" fill="#fa0505"/> 
    </symbol>
    <symbol id="map" viewBox="0 0 512 512">
       <path d="M212.2 384.1v64H43.6V223.7h56.6v-15.6H43.6v-32.4h56.3v-15.6H28V512h199.7V384.1zm0 112.3H43.6v-32.7h168.6v32.7z"/> <path d="M108.1 0v403.9l65.4-28H484V0zm360.3 360.3H170.3l-46.7 20V15.6h344.7l.1 344.7zM115.8 472h23.9v15.6h-23.9zM180.2 472h15.6v15.6h-15.6zM59.7 472h16.6v15.6H59.7z"/> <path d="M356.1 96.1a31.8 31.8 0 1 0 31.8 31.8 31.88 31.88 0 0 0-31.8-31.8zm0 48a16.2 16.2 0 1 1 16.2-16.2 16.26 16.26 0 0 1-16.2 16.2z" fill="#fa0505"/> <path d="M141.1 32v279.8H453V32zm296.4 15.5v249H156v-249l281.4.1" fill="#fa0505"/> <path d="M317 47.6v41.1a55 55 0 0 0-15.5 31.1h-25.1V47.6h-15.6v87.8h41c6.2 30 44.3 79.4 49 85.4l6.2 7.9 6.2-7.9c2-2.5 9.7-12.6 18.6-25.6v31.3l49.1 69.8 6.6.8v-18.4l-40.1-57.1v-51.3c8.7-15.4 15.6-31.1 15.6-42.3a55.63 55.63 0 0 0-15.6-38.6V47.6h-15.6v30.2a55.74 55.74 0 0 0-48.9-.3v-30m-.5 48.4h.2v-.2a40.28 40.28 0 0 1 64.5 32.1c0 15.5-22.7 51.3-40.3 75.1-4.5-6.2-11.1-15.3-17.5-25.4-19.9-30.9-22.8-44.4-22.8-49.8a40.36 40.36 0 0 1 15.9-31.8zM156 167.6h88.1v-120h-15.6V152H156zm0 47.8h72.5v80.9h15.6v-96.5H156zm128.7 80.8v-80.9h12l60.9 80.9h19.5l-72.7-96.5h-35.5v96.5z"/> <path fill="#fa0505" d="M139.7 328.6h103.9v15.6H139.7zM260.2 328.6h15.6v15.6h-15.6zM292.4 328.6H308v15.6h-15.6zM323.6 328.6h16.6v15.6h-16.6z"/> <path d="M59.7 240.3h40.5v15.6H59.7z"/> <path fill="#fa0505" d="M124.1 400.3v23.9H91.9V392h8.3v-15.6H76.3v63.4h63.4v-39.5h-15.6z"/> 
    </symbol>
    <symbol id="maps-and-flags" viewBox="0 0 512 512">
       <path d="M297.6 95.1l6-17.3H0v311.9h512V77.8h-79.5l5.6 15.7h10.7v88.3h47.5v24.1h-35.4L333.1 333.7H323l-87-87.1-87.1 87.1h-33.8l76-76L26.8 93.5h49.8l91.3 91.3 91.3-91.3H277l-72.2 72.2 71.1 71.1 52-52c.5.7.9 1.5 1.4 2.3m-9.6-16.2L276 214.6l-48.9-48.9 70.6-70.6a69.25 69.25 0 0 0-1.5 14.5M237 93.5l-69.1 69.1-69-69.1zm63.8 240.2H171.1l64.8-64.8zM15.7 104.6l153.1 153.1-76 76H15.7zm480.6 229.1h-16.1v15.7h16.1v24.5H15.7v-24.5h352.4v-15.7h-12.8l112-112.1h28.9l.1 112.1zm0-167.6h-31.8V93.5h31.8z"/> <path fill="#fa0505" d="M375.4 100.2V76.1h-15.7v24.1h-24.1v15.7h24.1V140h15.7v-24.1h25.2v-15.7h-25.2zM359.7 147.3h16.8V163h-16.8z"/> <path d="M335.6 460.5c-8.4 0-15.7-7.7-15.7-16.7v-48.2h-15.7v48.2a32.69 32.69 0 0 0 4.6 16.7H203.2a32.69 32.69 0 0 0 4.6-16.7v-48.2h-15.7v48.2c0 9.1-7.3 16.7-15.7 16.7h-32.5v15.7h224.2v-15.7z"/> <path d="M272.2 395.6a16.2 16.2 0 1 1-32.4 0h-15.7a31.9 31.9 0 0 0 63.8 0z"/> <path fill="none" d="M319.7 168.9l8.3 15.9"/> <path d="M368.1 51.5a56.25 56.25 0 0 1 56.2 56.2c0 24-36.2 79.1-56.2 106.8-20-27.7-56.2-82.8-56.2-106.8a56.25 56.25 0 0 1 56.2-56.2zm17.2 184.2a16.2 16.2 0 0 1-32.4 0 15.6 15.6 0 0 1 3.7-10.2c3 4.2 4.9 6.7 5.1 7l6.3 8.3 6.3-8.3c.2-.3 2.5-3.3 6.1-8.3a16.36 16.36 0 0 1 4.9 11.5zm47.2-159.9a71.84 71.84 0 0 0-128.8 0l-6 17.3a69.25 69.25 0 0 0-1.5 14.5c0 13.6 7.9 34.2 23.5 61.3l8.3 13.9c.5.7.9 1.5 1.4 2.3 6.4 10.2 12.7 19.6 18 27.3a31.88 31.88 0 1 0 53.6 23.3 32.18 32.18 0 0 0-11.5-24.5c5.2-7.5 11.2-16.5 17.2-26.2 22-35.2 33.2-61.3 33.2-77.5a71.83 71.83 0 0 0-1.9-16.2z" fill="#fa0505"/> 
    </symbol>
    <symbol id="oil" viewBox="0 0 496 496">
       <path d="M160 0H64v36.7l-64 64v149.2l16 32v92.2l-16 32V464a32.09 32.09 0 0 0 32 32h160a32.09 32.09 0 0 0 32-32v-57.9l-16-32v-92.2l16-32V100.7l-64-64zM80 16h64v16H80zm128 91.3V120h-16v16h16v32h-16v16h16v32h-16v16h16v14.1l-16 32v99.8l16 32V464a16 16 0 0 1-16 16H32a16 16 0 0 1-16-16v-54.1l16-32v-99.8l-16-32V232h160v-16H16v-32h160v-16H16v-32h160v-16H16v-12.7L75.3 48h73.4zM432 204.7V168h-96v36.7l-64 64V464a32.09 32.09 0 0 0 32 32h160a32.09 32.09 0 0 0 32-32V268.7zM352 184h64v16h-64zm128 104h-16v16h16v32h-16v16h16v32h-16v16h16v32h-16v16h16v16a16 16 0 0 1-16 16H304a16 16 0 0 1-16-16v-16h160v-16H288v-32h160v-16H288v-32h160v-16H288v-32h160v-16H288v-12.7l59.3-59.3h73.4l59.3 59.3V288z"/> <path d="M112 266.7l-44.8 59.7a56 56 0 1 0 89.6 0zm0 133.3a40 40 0 0 1-32-64l32-42.7 32 42.7a40 40 0 0 1-32 64z" fill="#fa0505"/> 
    </symbol>
    <symbol id="padlock" viewBox="0 0 512 512">
       <path d="M404.5 178.2v-28.7C404.5 67.1 337.4 0 255 0S105.4 67.1 105.4 149.5v28.7h-33V512h367.2V178.2zm-284.1-28.7C120.4 75.4 180.8 15 255 15s134.5 60.4 134.5 134.5v28.7h-21.3v-8.4h9.6v-15h-9.6v-8.4h9.6v-15h-11.1c-.5-2.8-1-5.6-1.7-8.4h12.7v-15h-17.5a113.13 113.13 0 0 0-218.4 41.5v28.7h-21.3l-.1-28.7zm232.8 0v28.7H156.8v-28.7a98.2 98.2 0 0 1 196.4 0zM424.6 497H87.4V193.2h337.1l.1 303.8z"/> <path d="M373.8 216.4h27.6v87h15v-102h-42.6v15zM401.4 326.9h15v14.2h-15zM401.4 473.8h-44.9v15h59.9v-46.3h-15v31.3zM228.5 473.8h14.8v15h-14.8zM110.6 382.9h-15v105.9h105.1v-15h-90.1v-90.9zM95.6 350.4h15v11.8h-15zM110.6 216.4h41.9v-15H95.6v40.8h15v-25.8zM166.7 201.4h14.2v15h-14.2z"/> <path d="M256 266.6a46.07 46.07 0 0 0-29.6 81.4v72.7a29.7 29.7 0 0 0 59.4 0V348a46.07 46.07 0 0 0-29.8-81.4zm17.9 71.6l-3.2 2.2v80.3a14.7 14.7 0 1 1-29.4 0v-80.3l-3.2-2.2a31.1 31.1 0 1 1 48.9-25.5 30.8 30.8 0 0 1-13.1 25.5z" fill="#fa0505"/> 
    </symbol>
    <symbol id="radiation" viewBox="0 0 511.86 512.01">
       <path d="M421.23 60.51a256 256 0 0 0-378.6 337 10 10 0 0 0 8.3 4.5 9.39 9.39 0 0 0 5.5-1.7 10.1 10.1 0 0 0 2.8-13.9c-64.4-96.8-47.5-228.4 39.2-306.2 87.4-78.2 220.6-80.2 309.9-4.5a10 10 0 0 0 14.1-1.2 9.89 9.89 0 0 0-1.2-14zM446.93 85.61l-.4-.4a10 10 0 0 0-14.8 13.4l.3.4a10 10 0 0 0 7.5 3.3 9.61 9.61 0 0 0 6.7-2.6 10 10 0 0 0 .7-14.1zM466.83 110.81a10.07 10.07 0 0 0-13.9-2.6 10 10 0 0 0-2.5 13.9c67.2 97.4 51.3 230.5-36.9 309.6-86.8 77.8-219.6 80.1-308.8 5.4a10.006 10.006 0 0 0-12.9 15.3 255.56 255.56 0 0 0 164.2 59.6h3.2a256 256 0 0 0 167.5-65.3c95.8-85.8 113-230.2 40.1-335.9zM80.33 413.61l-.2-.2a10 10 0 0 0-14.9 13.3l.2.2a10.12 10.12 0 0 0 7.5 3.4 9.73 9.73 0 0 0 6.6-2.5 10.1 10.1 0 0 0 .8-14.2z"/> <path d="M453.93 246.01h-100.5a98.22 98.22 0 0 0-40.1-69.4l50.3-87.1a10.07 10.07 0 0 0 1-7.6 10.26 10.26 0 0 0-4.7-6.1 208.07 208.07 0 0 0-208 .1 10 10 0 0 0-3.7 13.7l50.3 87.1a98.22 98.22 0 0 0-40.1 69.4H57.93a10.33 10.33 0 0 0-7.1 2.9 9.9 9.9 0 0 0-2.9 7.1 207.84 207.84 0 0 0 104 180.1 10.13 10.13 0 0 0 13.7-3.7l50.3-87a97.79 97.79 0 0 0 80.2 0l50.3 87.1a10 10 0 0 0 6.1 4.7 11.53 11.53 0 0 0 2.6.3 10.94 10.94 0 0 0 5-1.3 207.26 207.26 0 0 0 103.8-180.3 10 10 0 0 0-10-10zm-283.2-157.6a188.74 188.74 0 0 1 170.4 0l-45.1 78.2a97.79 97.79 0 0 0-80.2 0zm27.8 247l-45.1 78.1a188.89 188.89 0 0 1-85.2-147.6h90.2a98.23 98.23 0 0 0 40.1 69.5zm57.4-1.4a78 78 0 1 1 78-78 78.1 78.1 0 0 1-78 78zm102.6 79.6l-45.1-78.2h-.1a98 98 0 0 0 40.2-69.5h90.2a189.08 189.08 0 0 1-85.2 147.7z" fill="#fa0505"/> <path d="M260.73 193.91a10.17 10.17 0 0 0-9-.3c-1.5.7-37.8 18.1-37.8 62.4s36.2 61.7 37.8 62.4a10.25 10.25 0 0 0 8.4 0c1.5-.7 37.8-18.1 37.8-62.4 0-40.7-30.7-58.8-37.2-62.1zm5.2 95v-20.9a10 10 0 0 0-20 0v20.9c-6.2-7.1-12-17.8-12-32.9a49.13 49.13 0 0 1 22-41.7 49.12 49.12 0 0 1 22 41.7c0 15.1-5.8 25.8-12 32.9z"/> 
    </symbol>
    <symbol id="shopping-store" viewBox="0 0 512 512">
       <path d="M351.4 202.8a80 80 0 1 0 0 113.2 80.15 80.15 0 0 0 0-113.2zm-11 102.1a64.4 64.4 0 0 1-109.9-45.5 63.69 63.69 0 0 1 16.7-43.2v13.2h15.6v-25.8a62.81 62.81 0 0 1 26.1-8.2v34h15.6v-33.6a63.45 63.45 0 0 1 22.9 8.1v9.9h12.8c.1.1.1.1.2.1a64.4 64.4 0 0 1 0 91z" fill="#fa0505"/> <path d="M334.4 219.8l-11.1 11.1a40.38 40.38 0 0 1 0 57l11.1 11.1a56.13 56.13 0 0 0 0-79.2z" fill="#fa0505"/> <path d="M0 30.2v279.5h182.5V294H15.6V45.9h480.8V294h-96v15.7H512V30.2H0z"/> <path d="M48 68.8h15.6v168.9H48zM87.6 68.8h15.6v168.9H87.6zM127.2 68.8h15.6v168.9h-15.6zM167.9 68.8h15.6v168.9h-15.6z"/> <path d="M384.8 207V68.8h-15.6v117.7l-.7-.7a104.8 104.8 0 0 0-25.4-18.7V68.8h-15.6v91.7a104.68 104.68 0 0 0-22.9-4.7v-87H289v86.7a103.74 103.74 0 0 0-26.1 4.8V68.8h-15.6v98.1a105.13 105.13 0 0 0-24 17.1V68.8h-15.6v133.9a104.34 104.34 0 0 0-5.4 104.2l-20.5 20.5 17 17-11.6 11.6-11.3-11.3L79.6 441a23.86 23.86 0 0 0 33.8 33.7l96.3-96.3-11.3-11.3 11.6-11.6 17 17 20.5-20.5a104.17 104.17 0 0 0 151.6-92.7 105.5 105.5 0 0 0-14.3-52.3zM102.1 463.8a8.2 8.2 0 0 1-11.6-11.6l68.2-68.2 11.6 11.6zm79.3-79.3l-11.6-11.6 6-6 11.6 11.6zm45.4-34.1l-23-23 6.8-6.8a104.54 104.54 0 0 0 23 23zm130.6-28.5a88.48 88.48 0 1 1 25.9-62.6 87.82 87.82 0 0 1-25.9 62.6zM408.8 68.8h15.6v168.9h-15.6zM448.4 68.8H464v168.9h-15.6z"/> <path fill="#fa0505" d="M48 254.4h15.6V270H48zM86.6 254.4h16.7V270H86.6zM127.2 254.4h15.6V270h-15.6zM167.9 254.4h14.6V270h-14.6zM248.2 254.4h14.6V270h-14.6zM286.8 254.4h17.7V270h-17.7zM407.7 254.4h16.7V270h-16.7zM448.4 254.4h16.7V270h-16.7z"/> 
    </symbol>
    <symbol id="storage-box" viewBox="0 0 512 512">
       <path d="M387.8 40H124.2L0 189.1V472h512V189.1zm-7.4 15.7l106.7 128H342l-35.6-128zm-90.3 0l35.6 128H186.3l35.6-128zm38.2 143.8v86L256 263.8l-72.3 21.7v-86zM131.6 55.7h74l-35.6 128H24.9zm364.7 160.5h-16.2v15.7h16.2v224.4H15.7V231.9h16.2v-15.7H15.7v-16.8H168v16.8H40.3v15.7H168v74.7l88-26.4 88 26.4v-74.7h127.8v-15.7H344v-16.8h152.3z"/> <path fill="#fa0505" d="M247.6 64.4h15.7v112h-15.7zM272.2 360.2V440H472v-79.7H272.2zm184.1 64.1H287.9V376h168.4z"/> <path fill="#fa0505" d="M216.1 320.2v87.7H264v-15.7h-32.2v-56.3h112.4v16.2h15.7v-31.9H216.1zM304.2 392.1h15.7v15.7h-15.7zM328.3 392.1H344v15.7h-15.7zM352.3 392.1H368v15.7h-15.7zM376.4 392.1h15.7v15.7h-15.7zM400.5 392.1h15.7v15.7h-15.7zM424.6 392.1h15.7v15.7h-15.7z"/> <path fill="#fa0505" d="M247.6 360.7h16.8v15.7h-16.8z"/> <path d="M63.9 374.6l-28.4 19 8.7 13 11.8-7.8v33.1h15.7v-33.2l11.8 7.9 8.8-13-28.4-19zM127.9 374.6l-28.3 19 8.7 13 11.6-7.7v33h15.7v-33.3l12 8 8.7-13-28.4-19z"/> <path fill="#fa0505" d="M247.6 207.8h15.7v15.7h-15.7z"/> 
    </symbol>
    <symbol id="tag" viewBox="0 0 120 120">
       <path d="M115.9 0H73.2c-1.1 0-2.1.4-2.8 1.2L1.1 70.4c-1.5 1.6-1.5 4.1 0 5.7l42.8 42.8c1.6 1.5 4.1 1.5 5.7 0l69.2-69.3c.8-.7 1.2-1.8 1.2-2.8V4.1c0-2.3-1.8-4.1-4.1-4.1.1 0 0 0 0 0zM112 45.2l-65.2 65-37.1-37L74.8 8H112v37.2z"/> <path d="M92.8 40.5c3.7 0 6.8-1.3 9.5-4 2.6-2.6 3.9-5.7 3.9-9.4s-1.3-6.8-3.9-9.4c-2.5-2.5-5.7-3.8-9.5-3.8s-7 1.3-9.5 3.8-3.8 5.7-3.8 9.5c0 3.7 1.3 6.8 3.8 9.4 2.7 2.6 5.8 3.9 9.5 3.9zm-3.7-17.1c.9-1 2.1-1.5 3.7-1.5 1.5 0 2.8.5 3.8 1.5 2.1 2.1 2.1 5.4.1 7.5l-.1.1c-1.1 1.1-2.4 1.7-3.8 1.7-1.5 0-2.7-.6-3.7-1.7-1.1-1.1-1.7-2.3-1.7-3.7 0-1.6.7-2.8 1.7-3.9z"/> 
    </symbol>
    <symbol id="tank-truck" viewBox="0 0 512 512">
       <path d="M280.5 295v17H79.2v-17l-15-.4V312H7.5a7.5 7.5 0 0 0 0 15h13.4a47.51 47.51 0 0 0 69.3 65 45.68 45.68 0 0 0 5.4-6.9 47.55 47.55 0 0 0 87-18.1h33.7v.5a23.47 23.47 0 0 0 23.5 23.5H288a23.45 23.45 0 0 0 23.5-23.4v-.6h65.7a47.61 47.61 0 0 0 94 0h25.1a15.51 15.51 0 0 0 15.5-15.5v-80a7.57 7.57 0 0 0-.1-1.5 8.8 8.8 0 0 0-.5-1.5L479 193.1a40 40 0 0 0-36.9-25.2H400a23.45 23.45 0 0 0-23.5 23.4V312h-81.2v-17.4zm79.2-71.5v-16M497 320h-8.5a.46.46 0 0 1-.5-.4v-8.1a.46.46 0 0 1 .4-.5h8.6zm-7.2-64h-49.4a16.52 16.52 0 0 1-16.5-16.5V215h48.4zm-112.5 96h-66.9a23.46 23.46 0 0 0-22.3-16H240a23.59 23.59 0 0 0-22.3 16h-34.9a47.34 47.34 0 0 0-12.3-25h219.2a46.77 46.77 0 0 0-12.4 25zm-276.2-25a51.29 51.29 0 0 0-5.4 6.9 45.68 45.68 0 0 0-5.4-6.9zm-45.5 65a32.5 32.5 0 1 1 32.6-32.5A32.65 32.65 0 0 1 55.6 392zm80.2 0a32.5 32.5 0 1 1 32.6-32.5 32.71 32.71 0 0 1-32.6 32.5zm160.8-24.5a8.49 8.49 0 0 1-8.5 8.5H240a8.49 8.49 0 0 1-8.5-8.5v-8a8.49 8.49 0 0 1 8.5-8.5h48.1a8.49 8.49 0 0 1 8.5 8.5zM424.3 392a32.5 32.5 0 1 1 32.6-32.5 32.58 32.58 0 0 1-32.6 32.5zm72.2-40h-25.1a47.7 47.7 0 0 0-47-40h-32.6V191.5a8.49 8.49 0 0 1 8.5-8.5h42.1a24.53 24.53 0 0 1 22.9 15.7c0 .1 0 .1.1.2l.4 1.1h-49.5a7.55 7.55 0 0 0-7.5 7.5v32a31.52 31.52 0 0 0 31.6 31.5h55.7l.9 2v23h-8.5a15.51 15.51 0 0 0-15.5 15.5v8a15.58 15.58 0 0 0 15.5 15.5h8.5v16.5a.47.47 0 0 1-.5.5z"/> <path d="M55.6 344a15.5 15.5 0 1 0 15.5 15.5A15.51 15.51 0 0 0 55.6 344zm0 16a.5.5 0 1 1 .5-.5.47.47 0 0 1-.5.5zM135.8 344a15.5 15.5 0 1 0 15.5 15.5 15.58 15.58 0 0 0-15.5-15.5zm0 16a.5.5 0 1 1 .5-.5.47.47 0 0 1-.5.5zM424.3 344a15.5 15.5 0 1 0 15.5 15.5 15.51 15.51 0 0 0-15.5-15.5zm0 16a.5.5 0 1 1 .5-.5.47.47 0 0 1-.5.5z"/> <path d="M288.1 137h-80.7v-8.5a23.47 23.47 0 0 0-23.5-23.5h-8.1a23.45 23.45 0 0 0-23.5 23.4v8.6H71.6A71.7 71.7 0 0 0 0 208.5v16a71.68 71.68 0 0 0 64.1 71.1l15 .4h201.4l15-.4a71.6 71.6 0 0 0 64.1-71.1v-16a71.55 71.55 0 0 0-71.5-71.5zm-120.8-8.5a8.49 8.49 0 0 1 8.5-8.5h8a8.49 8.49 0 0 1 8.5 8.5v8.5h-25zm177.4 96a56.53 56.53 0 0 1-56.6 56.5h-16.5v-80.5a7.5 7.5 0 0 0-15 0V281H103.2v-80.5a7.5 7.5 0 1 0-15 0V281H71.6A56.59 56.59 0 0 1 15 224.5v-16A56.53 56.53 0 0 1 71.6 152h16.5v16.5a7.5 7.5 0 0 0 15 0V152h153.3v16.5a7.5 7.5 0 0 0 15 0V152h16.5a56.53 56.53 0 0 1 56.6 56.5v16z" fill="#fa0505"/> 
    </symbol>
    <symbol id="tank" viewBox="0 0 496 496">
       <path d="M480 480h16v16h-16zM440 444a52 52 0 1 0-89.4 36H145.4a52 52 0 1 0-74.8 0H0v16h464v-16h-38.6a51.84 51.84 0 0 0 14.6-36zm-332 36a36 36 0 1 1 36-36 36.11 36.11 0 0 1-36 36zm280 0a36 36 0 1 1 36-36 36.11 36.11 0 0 1-36 36zM232 64h-24V48h-16v16h-40V48h-16v16.2C60.7 66.3 0 128.2 0 204a140.15 140.15 0 0 0 75.2 124H16v-16H0v64h496v-64h-16v16h-59.2A140 140 0 0 0 496 204c0-75.8-60.7-137.7-136-139.8m-16-.2h-96m-96 16h40v32h-40zm0 48h40v32h-40zm0 48h40v32h-40zm0 48h40v32h-40zM16 204c0-67 53.5-121.7 120-123.8V312h16v-40h40v40h16V80h148a124 124 0 0 1 0 248H140A124.11 124.11 0 0 1 16 204zm464 156H16v-16h464z"/> <path fill="#fa0505" d="M232 96h16v16h-16zM264 96h16v16h-16zM296 96h16v16h-16zM328 96h16v16h-16zM360 96h16v16h-16zM358.5 32h-24.8a40 40 0 0 0-78.4 0h-40.8v16h16v16h16V48h96v16l16 .2V48h16V32zM272 29.5a23.82 23.82 0 0 1 45 0z"/> 
    </symbol>
    <symbol id="team" viewBox="0 0 512 512">
       <path d="M489.27 293.64A70.57 70.57 0 0 0 466.43 279l-34.51-14.38-24.17-16v-8.02a65.9 65.9 0 0 0 34.54-47.84A31 31 0 0 0 461 141.08v-29.73a86.88 86.88 0 0 0-86.78-86.78h-6.56A86.71 86.71 0 0 0 283.85 89a90.79 90.79 0 0 0-23.75-3.17h-6.91a90.72 90.72 0 0 0-25 3.51 86.71 86.71 0 0 0-83.95-64.76h-6.56A86.88 86.88 0 0 0 51 111.35v29.74a31 31 0 0 0 18.76 51.68 65.9 65.9 0 0 0 34.54 47.84v8.12l-24.17 16L45.57 279a70.56 70.56 0 0 0-22.84 14.6C12.36 303.43 0 321 0 349.31v49.13a8.09 8.09 0 0 0 8.08 8.1H109.6a89.79 89.79 0 0 0-2.4 21v51.77a8.09 8.09 0 0 0 8.08 8.1h189.94a8.08 8.08 0 1 0 0-16.17h-17.31l-9.76-60.51 3.85-10.14 5.77 4.24a8.08 8.08 0 0 0 12.06-3l22-45.13L351 368.94l.54.2c.37.12 37.05 13 37.05 58.42v43.7H355.1v-46.05a8.08 8.08 0 1 0-16.17 0v46.06h-8.55a8.08 8.08 0 1 0 0 16.17h66.34a8.17 8.17 0 0 0 8.08-8.19v-51.69a89.79 89.79 0 0 0-2.4-21h101.52a8.17 8.17 0 0 0 8.08-8.18v-49c0-28.38-12.36-45.95-22.73-55.74zM427 182.32a49.62 49.62 0 0 1-49.57 49.57h-12.55a50.44 50.44 0 0 1-5.22-.29v-1.38a32.13 32.13 0 0 0-8.59-21.89v-31.51a90.41 90.41 0 0 0-9.33-40.09c17.73-4.29 38.53-12.5 54.63-28.23 5 10.67 14.34 24.56 30.55 30.71v43.11zm-35.42 64.18V263l-20.78 21.58L350.68 265v-12.45a32.35 32.35 0 0 0 4.11-5.28 66.21 66.21 0 0 0 10.07.8h12.51a65.56 65.56 0 0 0 14.21-1.57zm-48-16.28a16 16 0 0 1-4 10.63 8.11 8.11 0 0 0-3.65 3.07 15.94 15.94 0 0 1-3.6 1.66v-30.72a16.11 16.11 0 0 1 11.2 15.36zM453 162a14.87 14.87 0 0 1-9.9 14v-28a14.86 14.86 0 0 1 9.9 14zM299.31 93.73a70.55 70.55 0 0 1 68.39-53h6.56a70.69 70.69 0 0 1 70.61 70.61v20.39a37.4 37.4 0 0 0-2-.38 8.08 8.08 0 0 0-6.07-6c-22.63-5.15-29.59-34-29.65-34.3a8.08 8.08 0 0 0-14.44-3c-15.16 21-40.43 30.1-59.93 34.08A91.58 91.58 0 0 0 299 94.59a8 8 0 0 0 .31-.86zM253.2 102h6.91a74.92 74.92 0 0 1 74.83 74.83v22c-.94-.22-1.9-.41-2.87-.55 0-.11 0-.21-.07-.31s-.07-.27-.1-.4-.08-.26-.13-.39-.08-.23-.12-.34-.12-.27-.18-.4l-.15-.3-.21-.38-.18-.3-.23-.34-.23-.3-.24-.28-.28-.31-.24-.24-.33-.3-.26-.2-.36-.27-.29-.19-.36-.22-.36-.18-.33-.16-.45-.18-.29-.1-.52-.15-.2-.06c-24.12-5.49-31.51-36.18-31.57-36.47a8.08 8.08 0 0 0-14.43-3c-28.1 38.84-89.49 39.22-90.42 39.22a8.05 8.05 0 0 0-.82 0h-.19c-.21 0-.41.05-.61.09l-.22.06-.55.14-.28.1-.46.17-.35.17-.36.17-.35.21-.32.2-.33.24-.29.22-.3.27-.28.25-.26.29-.26.29-.23.3c-.08.11-.16.21-.24.32s-.13.21-.2.32-.14.23-.21.34-.11.23-.17.34-.12.24-.18.36-.09.24-.13.36-.1.25-.14.38-.07.25-.1.38-.07.26-.1.4v.07a31.8 31.8 0 0 0-3.18.62v-22.1A74.92 74.92 0 0 1 253.2 102zm3.27 258l-21.66-21.09v-20.23a68.74 68.74 0 0 0 15.38 1.76h13.21a68.82 68.82 0 0 0 14.94-1.65h.44v18zm12 30.65l-4.21 11.21h-15.1l-4.76-11.35 11.92-8.77zm-120.62-66.17h-13.74l-3.78-10.08 11-8.09 10.8 8zm1.07 32.12A77.34 77.34 0 0 0 131 369.22l-.27.26 4.65-28.84h10.95zm-7.71-72L120.42 263v-16.5a65.69 65.69 0 0 0 14.19 1.56h12.51a66.38 66.38 0 0 0 11.54-1 32.4 32.4 0 0 0 2.65 3.7v14.27zM175 274.2a8.06 8.06 0 0 0 2.38-6.76l7.1 4.68a68.17 68.17 0 0 0 2.73 7.2l-14.58 30-19.17-14.11zm-5-44a16.11 16.11 0 0 1 11.3-15.36v30.72a16.11 16.11 0 0 1-11.22-15.34zm-4.56 93.9l5.36 3.95a8.08 8.08 0 0 0 12.06-3l14.36-29.52a69.26 69.26 0 0 0 21.36 17.17v8.42l-25.92 17.1a8.23 8.23 0 0 0-1 .35l-27.47 11.45-2.66-16.5zm53.38 16.25a8.07 8.07 0 0 0 2.2 7.73l23.07 22.47-21 15.48-17.85-36.7zm44.49-36.1h-13.09a52.72 52.72 0 0 1-52.66-52.66v-44c17.34-1.26 58.37-7.11 86-34.52 5.19 11.29 15.08 26.3 32.49 32.79v45.74a52.72 52.72 0 0 1-52.65 52.67zM68.88 176a14.83 14.83 0 0 1 0-28zm8.3-50.87H77a8.08 8.08 0 0 0-7.86 6.22c-.67.1-1.32.23-2 .38v-20.39a70.69 70.69 0 0 1 70.61-70.61h6.56a70.55 70.55 0 0 1 68.39 53 8.16 8.16 0 0 0 .5 1.38 91.51 91.51 0 0 0-27.93 21.26c-9.32-9.71-12.56-23.26-12.59-23.39a8.08 8.08 0 0 0-14.43-3c-25.15 34.76-80.24 35.11-81 35.11zM85 182.32V141c15.9-1.21 52-6.61 76.87-30.62a64.71 64.71 0 0 0 13.59 19.14 90.45 90.45 0 0 0-13.32 47.35v31.85a32.12 32.12 0 0 0-8.28 21.55v1.19a50.12 50.12 0 0 1-6.82.49h-12.43A49.62 49.62 0 0 1 85 182.32zM104.44 268a8 8 0 0 0 2.08 3.93L129 295.27l-19 14.03-16.58-34.06zM111 390.37H63.34v-43.3a8.08 8.08 0 0 0-16.17 0v43.3h-31v-41.06c0-42.46 33.5-54.58 34.89-55.06l.53-.2L79 282.62l20.7 42.48a8.08 8.08 0 0 0 12.06 3l5-3.71 3.39 9zm114.7 80.89h-52.63v-46.05a8.08 8.08 0 0 0-16.17 0v46.06h-33.53v-43.7c0-45.06 35.58-57.91 37.06-58.42l.54-.2 29.83-12.43 22.06 45.35a8.09 8.09 0 0 0 5.33 4.31 8.17 8.17 0 0 0 1.93.23 8.07 8.07 0 0 0 4.79-1.57l6.09-4.48 4.43 10.57zm16.38 0l8.59-53.26h12.27l8.59 53.26zm47.42-85.2l-6.37-4.69h-.05l-14.47-10.65 24.08-25a8 8 0 0 0 2.19-4.57l12.48 8.24zm58.27-36l-27.12-11.3L295 321.81v-9.05a69.23 69.23 0 0 0 20.32-16l13.78 28.33a8.08 8.08 0 0 0 12.06 3l5.36-3.95 4 9.44zm-8.42-40.76L325.6 281a68.31 68.31 0 0 0 3.88-10.23l5.11-3.37a8.06 8.06 0 0 0 2.41 6.8l21.55 21zM381 369.22a77.37 77.37 0 0 0-17.9-12.62l2.58-16h10.95l4.65 28.84zm-3.09-44.74h-13.75l-4.28-10.22 10.8-8 11 8.09zm5.09-29.21l22.53-23.38a8 8 0 0 0 2.08-3.93l11 7.27L402 309.3zm81.87 95.1v-43.3a8.08 8.08 0 0 0-16.17 0v43.3H401l-9.19-57 3.39-9 5 3.71a8.08 8.08 0 0 0 12.06-3L433 282.62l27.44 11.43.54.2c.35.12 34.89 12.22 34.89 55.06v41.06h-31z"/> 
    </symbol>
    <symbol id="telemarketer" viewBox="0 0 60 60">
       <path d="M58 10h-6v2h6v6h-6v2h6v38H2V20h7v-2H2v-6h7v-2H2a1.89 1.89 0 0 0-2 2v46a1.89 1.89 0 0 0 2 2h56a1.89 1.89 0 0 0 2-2V12a1.89 1.89 0 0 0-2-2z"/> <path d="M5 14h3v2H5z"/> <path d="M17 31.9V36a.94.94 0 0 0 1 1h5a.94.94 0 0 0 1-1V24a.94.94 0 0 0-1-1h-5a.94.94 0 0 0-1 1v5.8a2.91 2.91 0 0 1-2-2.8V5a3 3 0 0 1 3-3h25a3 3 0 0 1 3 3v22a2.91 2.91 0 0 1-2 2.8V24a.94.94 0 0 0-1-1h-5a.94.94 0 0 0-1 1v12a.94.94 0 0 0 1 1h2v3a1.9 1.9 0 0 1-2 2h-7v-1a.94.94 0 0 0-1-1h-8a.94.94 0 0 0-1 1v4a.94.94 0 0 0 1 1h8a.94.94 0 0 0 1-1v-1h7a3.91 3.91 0 0 0 4-4v-3h1a.94.94 0 0 0 1-1v-4.1a5 5 0 0 0 4-4.9V5a5 5 0 0 0-5-5H18a5 5 0 0 0-5 5v22a5 5 0 0 0 4 4.9zm2-6.9h3v10h-3zm10 19h-6v-2h6zm13-9h-3V25h3z" fill="#fa0505"/> <path d="M7 53h4v2H7zM14 53h4v2h-4zM21 53h4v2h-4zM28 53h4v2h-4zM35 53h4v2h-4zM42 53h4v2h-4zM49 53h4v2h-4zM7 48h46v2H7zM7 43h10v2H7zM44 43h9v2h-9zM7 38h6v2H7zM47 38h6v2h-6z"/> 
    </symbol>
    <symbol id="telephone-call" viewBox="0 0 512 512">
       <path d="M24.1 240.1v56.1H8.2v15.9h15.9v56.1H40V240.1H24.1zM487.9 296.2v-56.1H472v128.1h15.9v-56.1h15.9v-15.9h-15.9zM280 0h-48C135 0 56 78.9 56 176h15.9c0-88.3 71.8-160.1 160.1-160.1h48c88.3 0 160.1 71.8 160.1 160.1H456C456 78.9 377 0 280 0zM456.1 215.8v-23.3h-15.9v23.3h-4.7a31.88 31.88 0 0 0-59.4 16.1v144a31.91 31.91 0 0 0 59.8 15.5h27.6V215.8zm-32 160.2a16.05 16.05 0 1 1-32.1 0V232a16.1 16.1 0 0 1 32.2 0v144zm15.9-.4v-144h7.7v144zM304 464.1h-96a24 24 0 0 0-22.7 16.4h-17.2v15.9h17.4A24 24 0 0 0 208 512h96a24 24 0 0 0 0-47.9zm0 32h-96a8.1 8.1 0 0 1 0-16.2h96a8.1 8.1 0 0 1 0 16.2zM104 200a32 32 0 0 0-27.5 15.7h-4.7v-23.3H55.9v23.3h-7.4v175.8h7.4v24.4h15.9v-24.4H76a31.94 31.94 0 0 0 59.9-15.4V232a32 32 0 0 0-31.9-32zm-32 32v143.7h-7.7v-144H72zm48 144a16.1 16.1 0 1 1-32.2 0V232a16.1 16.1 0 1 1 32.2 0zM120 480.5a48.31 48.31 0 0 1-48.2-48.3v-7.8H55.9v9.2l.1.2a64.17 64.17 0 0 0 64 62.6h39.7v-15.9z"/> <path d="M256 216.1a88 88 0 1 0 88 88 88.13 88.13 0 0 0-88-88zm0 160a72.1 72.1 0 1 1 72.1-72.1 72.19 72.19 0 0 1-72.1 72.1z" fill="#fa0505"/> <path d="M247.5 240.1h15.9V256h-15.9zM284.354 264.464l11.314-11.314 11.243 11.243-11.314 11.314zM303.7 296.2h15.9v15.9h-15.9zM284.263 343.6l11.243-11.244 11.314 11.314-11.243 11.243zM247.5 352.4h15.9v14.8h-15.9zM205.134 343.688l11.314-11.314 11.243 11.243-11.314 11.314zM192.5 296.2h15.9v15.9h-15.9zM205.074 264.392l11.243-11.243 11.314 11.314-11.243 11.243z"/> <path fill="#fa0505" d="M263.4 296.2v-31.7h-15.9v47.6h32.9v-15.9h-17z"/> <path d="M256 192a112 112 0 1 0 112 112 112.14 112.14 0 0 0-112-112zm0 208.1a96.1 96.1 0 1 1 96.1-96.1 96.2 96.2 0 0 1-96.1 96.1z"/> 
    </symbol>
    <symbol id="transformer-truck" viewBox="0 0 512 512">
       <path d="M201.6 353.3a7.6 7.6 0 0 0-3.9 9.9 32.22 32.22 0 0 1 2.7 13 32.6 32.6 0 1 1-32.6-32.6 32.22 32.22 0 0 1 13 2.7 7.52 7.52 0 0 0 6-13.8 47.32 47.32 0 1 0 24.6 24.6 7.49 7.49 0 0 0-9.8-3.8z"/> <path d="M167.9 360.7a15.5 15.5 0 1 0 15.5 15.5 15.71 15.71 0 0 0-15.5-15.5zm0 16.1a.5.5 0 1 1 .5-.5.54.54 0 0 1-.5.5zM378 353.3a7.6 7.6 0 0 0-3.9 9.9 32.22 32.22 0 0 1 2.7 13 32.6 32.6 0 1 1-32.6-32.6 32.22 32.22 0 0 1 13 2.7 7.52 7.52 0 0 0 6-13.8 47.55 47.55 0 1 0 28.6 43.7 45.62 45.62 0 0 0-4-19 7.49 7.49 0 0 0-9.8-3.9z"/> <path d="M344.2 360.7a15.5 15.5 0 1 0 15.5 15.5 15.58 15.58 0 0 0-15.5-15.5zm0 16.1a.5.5 0 1 1 .5-.5c.1.2-.1.5-.5.5z"/> <path d="M488.5 56h-465A23.54 23.54 0 0 0 0 79.5v232.7a23.62 23.62 0 0 0 23.5 23.6h40.7a7.57 7.57 0 0 0 7 8 7.68 7.68 0 0 0 5.8-2.2l5.8-5.8h16.5A79.65 79.65 0 1 0 247.1 384h17.7a79.65 79.65 0 1 0 147.8-48.1h16.5l5.8 5.8a7.54 7.54 0 0 0 10.6 0 7.83 7.83 0 0 0 2.2-5.8h40.6a23.62 23.62 0 0 0 23.6-23.5V79.6A23.43 23.43 0 0 0 488.7 56zM167.9 440.9a64.7 64.7 0 1 1 64.6-64.7 64.59 64.59 0 0 1-64.6 64.7zm97.1-72.1h-17.7a79.36 79.36 0 0 0-10.8-33.1h39.4a75.44 75.44 0 0 0-10.9 33.1zm79.2 72.1a64.7 64.7 0 1 1 64.6-64.7 64.59 64.59 0 0 1-64.6 64.7zm57-120.3A79.32 79.32 0 0 0 289 319l-1.6 1.6H225a79.32 79.32 0 0 0-112.2-1.6l-1.6 1.6H97.8l41.1-41.1h234.3l41.1 41.1zm87.3 0h-53l-53.9-53.9a7.49 7.49 0 0 0-5.3-2.2H135.8a7.49 7.49 0 0 0-5.3 2.2l-53.9 53.9h-53a8.49 8.49 0 0 1-8.5-8.5v-8.5h56.6a7.5 7.5 0 1 0 0-15H15v-209a8.49 8.49 0 0 1 8.5-8.5h465a8.49 8.49 0 0 1 8.5 8.5v209h-56.6a7.5 7.5 0 0 0 0 15H497v8.5a8.37 8.37 0 0 1-8.5 8.5z"/> <path d="M159.8 96.1H47.6a7.55 7.55 0 0 0-7.5 7.5v128.3a7.55 7.55 0 0 0 7.5 7.5h112.2a7.55 7.55 0 0 0 7.5-7.5V103.6a7.49 7.49 0 0 0-7.5-7.5zm-7.5 15v65.2h-49.1v-40.6a7.5 7.5 0 0 0-15 0v40.6H55.1v-65.2zM55.1 224.4v-33.1h97.2v33.1z"/> <path d="M79.7 200.4a7.51 7.51 0 1 0 5.3 2.2 7.1 7.1 0 0 0-5.3-2.2zM111.7 200.4a7.51 7.51 0 1 0 5.3 2.2 7.1 7.1 0 0 0-5.3-2.2zM135.8 200.4a7.51 7.51 0 1 0 5.3 2.2 7.1 7.1 0 0 0-5.3-2.2z" fill="#fa0505"/> <path d="M384.3 111.1h80.2a7.5 7.5 0 0 0 0-15h-80.2a7.5 7.5 0 0 0 0 15zM384.3 143.2h80.2a7.5 7.5 0 0 0 0-15h-80.2a7.5 7.5 0 0 0 0 15zM384.3 175.3h80.2a7.5 7.5 0 0 0 0-15h-80.2a7.5 7.5 0 0 0 0 15zM384.3 207.4h80.2a7.5 7.5 0 0 0 0-15h-80.2a7.5 7.5 0 0 0 0 15zM472 231.9a7.55 7.55 0 0 0-7.5-7.5h-80.2a7.5 7.5 0 0 0 0 15h80.2a7.49 7.49 0 0 0 7.5-7.5z"/> <path d="M352.3 143.2a7.5 7.5 0 0 0 0-15h-.5v-24.6a7.55 7.55 0 0 0-7.5-7.5H199.9a7.55 7.55 0 0 0-7.5 7.5v128.3a7.55 7.55 0 0 0 7.5 7.5h144.3a7.55 7.55 0 0 0 7.5-7.5v-24.6h.5a7.5 7.5 0 0 0 0-15h-.5v-49.1h.6zm-15.6 49.1h-.5a7.5 7.5 0 0 0 0 15h.5v17H207.4V111.1h129.3v17h-.5a7.5 7.5 0 0 0 0 15h.5z" fill="#fa0505"/> <path d="M232 160.3h-8a7.5 7.5 0 0 0 0 15h8a7.5 7.5 0 0 0 0-15z" fill="#fa0505"/> 
    </symbol>
    <symbol id="transport" viewBox="0 0 512 512">
       <path d="M241 258h-5a5 5 0 0 0-5 5v16a5 5 0 0 0 5 5h5a5 5 0 0 0 5-5v-16a5 5 0 0 0-5-5z" fill="#fa0505"/> <path d="M223.5 318v-74.5h30V318h15v-11.7H336a17.58 17.58 0 0 0 17.5-17.5V246a17.58 17.58 0 0 0-17.5-17.5H187.2a17.63 17.63 0 0 0-17 13.3l-10.7 42.8a17.48 17.48 0 0 0 17 21.7h32V318zm45-74.5H336a2.48 2.48 0 0 1 2.5 2.5v42.8a2.48 2.48 0 0 1-2.5 2.5h-25V266a7.5 7.5 0 0 0-15 0v25.3h-27.5zm-92 47.8a2.4 2.4 0 0 1-2-1 2.54 2.54 0 0 1-.5-2.1l10.7-42.8a2.55 2.55 0 0 1 2.4-1.9h21.3v47.8zM504.4 386h-9.9a7.59 7.59 0 0 0-7 4.7 12.52 12.52 0 0 1-11.6 7.8H69.5a12.52 12.52 0 0 1-11.6-7.8L51 373.5H34.8l9.2 22.8a27.41 27.41 0 0 0 25.5 17.2H476a27.29 27.29 0 0 0 23-12.5h5.5a7.55 7.55 0 0 0 7.5-7.5 7.39 7.39 0 0 0-7.6-7.5zM29.1 318l-10.9-27H42l10.9 27h16.2l-10.9-27h20a14.88 14.88 0 0 1 13.9 9.4l4.9 12.3a51.24 51.24 0 0 0 2.5 5.3h18.9a30 30 0 0 1-7.5-10.9l-4.9-12.3a30.1 30.1 0 0 0-27.9-18.9H8.7a8.66 8.66 0 0 0-8.3 5.8 8.57 8.57 0 0 0 .2 5.7L12.9 318z"/> <path d="M138.4 212.5a14.54 14.54 0 0 0 6.1 8.6L120.3 318h15.5l23.6-94.5h128.7a13.12 13.12 0 0 0 7.7-2.5h71.6a12.08 12.08 0 0 1 1 5v25a7.5 7.5 0 0 0 15 0v-25a29.35 29.35 0 0 0-1.3-8.3 7.71 7.71 0 0 0 1.3-4.2 7.49 7.49 0 0 0-6.7-7.5l31.4-84.4a12.44 12.44 0 0 1 11.7-8.1H456a7.5 7.5 0 0 0 0-15h-36.1a27.7 27.7 0 0 0-25.8 17.9l-22.4 60.3A27.67 27.67 0 0 0 346 159h-90a27.53 27.53 0 0 0-23.9 13.9 186.38 186.38 0 0 0-40.3-4.4H146a14.47 14.47 0 0 0-14 18zM333.5 174H346a12.5 12.5 0 0 1 12.5 12.5V206h-25zm-50 0h35v32h-18.3a12.87 12.87 0 0 0-4.9-6.2c-3.8-2.6-7.8-5-11.8-7.2V174zm-27.5 0h12.5v11a179.56 179.56 0 0 0-20.7-7.9 12.11 12.11 0 0 1 8.2-3.1zm-64.2 9.5a172.44 172.44 0 0 1 43 5.5 172 172 0 0 1 46.2 19.5H152.9l-6.3-25z"/> <path d="M496 373.5a7.55 7.55 0 0 0 7.5-7.5v-70a27.48 27.48 0 0 0-27.5-27.5h-80a37.35 37.35 0 0 0-34.8 23.6l-4.9 12.3a22.27 22.27 0 0 1-20.9 14.1h-66.9v-.5h-15v.5h-30v-.5h-15v.5h-72.9l.1-.5h-15.5l-.1.5H119c-.2-.2-.4-.3-.5-.5H99.6c.1.2.2.3.3.5H69.3l-.2-.5H52.9l.2.5H29.3l-.2-.5H12.9l3.2 8a8.32 8.32 0 0 0 1.9 2.6 11.32 11.32 0 0 0 .8 5.4l14 34.7c0 .1.1.2.1.3l1.8 4.5H496zm-461.2-40h300.6a37.35 37.35 0 0 0 34.8-23.6l4.9-12.3a22.27 22.27 0 0 1 20.9-14.1h80a12.5 12.5 0 0 1 12.5 12.5v62.5H44.9z" fill="#fa0505"/> <path d="M457 293.5a7.55 7.55 0 0 0-7.5 7.5v15a2.48 2.48 0 0 1-2.5 2.5h-41.2a1.71 1.71 0 0 1-1.6-.9 1.8 1.8 0 0 1-.2-1.8l5-12.6a7.47 7.47 0 1 0-13.9-5.5l-5 12.6a17 17 0 0 0 15.7 23.3H447a17.58 17.58 0 0 0 17.5-17.5v-15a7.58 7.58 0 0 0-7.5-7.6z"/> 
    </symbol>
    <symbol id="truck" viewBox="0 0 512 512">
       <path d="M71.6 367.2a7.55 7.55 0 0 0-7.5 7.5 8.5 8.5 0 1 1-8.5-8.5 7.5 7.5 0 0 0 0-15 23.4 23.4 0 1 0 23.5 23.4 7.41 7.41 0 0 0-7.5-7.4zM167.8 367.2a7.55 7.55 0 0 0-7.5 7.5 8.5 8.5 0 1 1-8.5-8.5 7.5 7.5 0 0 0 0-15 23.4 23.4 0 1 0 23.5 23.4 7.41 7.41 0 0 0-7.5-7.4zM424.3 367.2a7.55 7.55 0 0 0-7.5 7.5 8.5 8.5 0 1 1-8.5-8.5 7.5 7.5 0 0 0 0-15 23.4 23.4 0 1 0 23.5 23.4 7.41 7.41 0 0 0-7.5-7.4z"/> <path d="M512 262.8v-.8a.6.6 0 0 0-.1-.4c0-.1-.1-.3-.1-.4a.37.37 0 0 0-.1-.3c0-.2-.1-.3-.1-.5s0-.1-.1-.2l-32.2-83.3a39.62 39.62 0 0 0-37-25.2h-66.1a23.16 23.16 0 0 0-17.6 8h-14.9v-46.5a31.42 31.42 0 0 0-9.2-22.2l-9-9a7.55 7.55 0 0 0-10.6.4 7.43 7.43 0 0 0 0 10.2l9 9a16.49 16.49 0 0 1 4.8 11.7v46.6h-9v-16.5a15.64 15.64 0 0 0-15.5-15.5H15.5A15.49 15.49 0 0 0 0 143.3v175.5a15.64 15.64 0 0 0 15.5 15.5h2.1a55 55 0 0 0-2.6 78.1 55.8 55.8 0 0 0 78.6 2.6 53.83 53.83 0 0 0 10.1-12.7A55.72 55.72 0 0 0 207 382.1h9.5v.5A23.45 23.45 0 0 0 240 406h48.2a23.39 23.39 0 0 0 23.5-23.4v-.6h41.6a55.63 55.63 0 0 0 110.2-.1c.3 0 .7.1 1 .1h32.1a15.45 15.45 0 0 0 15.5-15.5V262.8zm-15 64.5h-8.5a.46.46 0 0 1-.5-.4v-8.1a.46.46 0 0 1 .4-.5h8.6zm-6.5-79.8h-74.1a16.52 16.52 0 0 1-16.5-16.5v-32.4h71.8zm-137.8-72.8v144.6h-33.1V174.7zM15.5 319.3a.46.46 0 0 1-.5-.4V143.3a.46.46 0 0 1 .4-.5h288.7a.46.46 0 0 1 .5.4v176.1zm98.3 15a53.83 53.83 0 0 0-10.1 12.7 58.82 58.82 0 0 0-10.1-12.7zM55.6 415a40.4 40.4 0 1 1 40.6-40.4A40.52 40.52 0 0 1 55.6 415zm96.2 0a40.4 40.4 0 1 1 40.6-40.4 40.52 40.52 0 0 1-40.6 40.4zm144.8-32.4a8.49 8.49 0 0 1-8.5 8.5H240a8.49 8.49 0 0 1-8.5-8.5v-16a8.49 8.49 0 0 1 8.5-8.5h48.1a8.49 8.49 0 0 1 8.5 8.5zm-8.5-39.4H240a23.39 23.39 0 0 0-23.5 23.4v.6H207a55.8 55.8 0 0 0-17.1-32.9h180.6a55.25 55.25 0 0 0-17.1 32.9h-41.6v-.5a23.77 23.77 0 0 0-23.7-23.5zM408.3 415a40.4 40.4 0 1 1 40.6-40.4 40.52 40.52 0 0 1-40.6 40.4zm88.2-47.8h-32.1a3.4 3.4 0 0 0-1 .1 55.71 55.71 0 0 0-55.1-48h-40.6V175.2a8.49 8.49 0 0 1 8.5-8.5h66.1a24.38 24.38 0 0 1 22.9 15.7l.5 1.3h-73.5a7.55 7.55 0 0 0-7.5 7.5v39.9a31.5 31.5 0 0 0 31.6 31.4h80l.7 1.9v39h-8.5a15.45 15.45 0 0 0-15.5 15.5v8a15.64 15.64 0 0 0 15.5 15.5h8.5v24.4c0 .1-.2.3-.5.4z"/> <path d="M248 367.2a7.43 7.43 0 0 0-7.5 7.5 7.55 7.55 0 0 0 7.5 7.5 7.5 7.5 0 0 0 0-15z"/> <path d="M39.6 174.7H280a7.43 7.43 0 0 0 7.5-7.5 7.55 7.55 0 0 0-7.5-7.5H39.6a7.5 7.5 0 0 0 0 15zM39.6 206.6H280a7.43 7.43 0 0 0 7.5-7.5 7.55 7.55 0 0 0-7.5-7.5H39.6a7.5 7.5 0 0 0 0 15zM39.6 238.5H280a7.43 7.43 0 0 0 7.5-7.5 7.55 7.55 0 0 0-7.5-7.5H39.6a7.5 7.5 0 0 0 0 15zM39.6 270.4H280a7.5 7.5 0 0 0 0-15H39.6a7.5 7.5 0 1 0 0 15zM287.6 294.9a7.55 7.55 0 0 0-7.5-7.5H39.6a7.43 7.43 0 0 0-7.5 7.5 7.55 7.55 0 0 0 7.5 7.5H280a7.71 7.71 0 0 0 7.6-7.5z" fill="#fa0505"/> 
    </symbol>
    <symbol id="waste" viewBox="0 0 512 512">
       <path d="M166.7 156h-.1a10 10 0 0 0 0 20h.1a10 10 0 0 0 0-20z"/> <path d="M502 458h-4.1V94h4.1a10 10 0 0 0 0-20h-76V20h10a10 10 0 0 0 0-20H76a10 10 0 0 0 0 20h10v54H10a10 10 0 0 0 0 20h3.9v364H10a10 10 0 0 0 0 20h76v14H76a10 10 0 0 0 0 20h360a10 10 0 0 0 0-20h-10v-14h76a10 10 0 0 0 0-20zm-416 0H33.9V350H54a10 10 0 0 0 0-20H33.9V222H54a10 10 0 0 0 0-20H33.9V94H86zM266 20h100m20 0h20v136H200.1a10 10 0 1 0 0 20H406v160h-27.6a10 10 0 0 0 0 20H406v136H106V356h205.9a10 10 0 0 0 0-20H106V176h27.6a10 10 0 0 0 0-20H106V20h140m231.9 182H453a10 10 0 0 0 0 20h24.9v108H453a10 10 0 0 0 0 20h24.9v108H426V94h51.9z"/> <path d="M345.4 336h-.1a10 10 0 0 0 0 20h.1a10 10 0 0 0 0-20z"/> <path d="M33.9 202H54a10 10 0 0 1 0 20H33.9v108H54a10 10 0 0 1 0 20H33.9v108H86V94H33.9zM426 458h51.9V350H453a10 10 0 0 1 0-20h24.9V222H453a10 10 0 0 1 0-20h24.9V94H426z" fill="none"/> <path d="M502 458h-4.1V94h4.1a10 10 0 0 0 0-20h-76V20h10a10 10 0 0 0 0-20H76a10 10 0 0 0 0 20h10v54H10a10 10 0 0 0 0 20h3.9v364H10a10 10 0 0 0 0 20h76v14H76a10 10 0 0 0 0 20h360a10 10 0 0 0 0-20h-10v-14h76a10 10 0 0 0 0-20zm-416 0H33.9V350H54a10 10 0 0 0 0-20H33.9V222H54a10 10 0 0 0 0-20H33.9V94H86zM406 84v72H200.1a10 10 0 1 0 0 20H406v160h-27.6a10 10 0 0 0 0 20H406v136H106V356h205.9a10 10 0 0 0 0-20H106V176h27.6a10 10 0 0 0 0-20H106V20h89v-.5h208v.5h3zm71.9 118H453a10 10 0 0 0 0 20h24.9v108H453a10 10 0 0 0 0 20h24.9v108H426V94h51.9z"/> <path d="M365.5 20v93.5a9.5 9.5 0 0 1-19 0V64a30 30 0 0 0-60 0v18.5a10.5 10.5 0 0 1-21 0V20h-20v62.5a30.5 30.5 0 0 0 61 0V64a10 10 0 0 1 20 0v49.5a29.5 29.5 0 0 0 59 0V20z" fill="#fa0505"/> 
    </symbol>
    <symbol id="worldwide" viewBox="0 0 512 512">
       <path d="M487.36 146.28a7.5 7.5 0 0 0-13.55 6.44A241.05 241.05 0 0 1 256 497a238.48 238.48 0 0 1-108.51-25.75A243.35 243.35 0 0 1 73.16 413l29.59 9.86a7.5 7.5 0 1 0 4.74-14.23l-53.24-17.74a7.5 7.5 0 0 0-9.8 8.18l8.88 62.13a7.5 7.5 0 0 0 7.42 6.44 7.62 7.62 0 0 0 1.07-.08 7.5 7.5 0 0 0 6.36-8.48l-5-34.66a258.41 258.41 0 0 0 77.5 60.24A256 256 0 0 0 512 256a253.72 253.72 0 0 0-24.64-109.72zM467.55 112.94l-8.87-62.13a7.5 7.5 0 0 0-14.85 2.12l4.95 34.63A256 256 0 0 0 0 256a253.72 253.72 0 0 0 24.64 109.72 7.5 7.5 0 1 0 13.55-6.44A241.05 241.05 0 0 1 256 15a239.65 239.65 0 0 1 182.82 84l-29.57-9.86a7.5 7.5 0 0 0-4.74 14.23l53.25 17.75a7.5 7.5 0 0 0 9.8-8.18z"/> <path d="M215.14 143.08a7.5 7.5 0 0 0-7.5-7.38h-.12a7.5 7.5 0 0 0-7.38 7.62l.21 13.79-5.56 5.28a7.5 7.5 0 1 0 10.33 10.88l7.94-7.55a7.5 7.5 0 0 0 2.33-5.55z"/> <path d="M403 132.62a7.5 7.5 0 1 0-11.48 9.66 175.94 175.94 0 0 1 38.89 83.93l-2.29-2.21a20.21 20.21 0 0 0-31.24 3.62l-1.29 2a13.84 13.84 0 0 0-9.67 3.74l-9.87-11.69a7.5 7.5 0 1 0-11.46 9.68l15.09 17.87a7.5 7.5 0 0 0 11 .5l4.84-4.77 6 4.13-22.32 44.31-1.21.09a5.24 5.24 0 0 1-4.41-1.89l-29.71-36.21a7.5 7.5 0 1 0-11.6 9.51l29.71 36.21a20.22 20.22 0 0 0 17.02 7.37l9.66-.72-29.55 68.33a56 56 0 0 1-8.47 13.73L327.11 418a176.1 176.1 0 0 1-36.84 11.54l-13-11.3a5.2 5.2 0 0 1-1.61-5.52l2.27-7.32a7.5 7.5 0 0 0-2.69-8.24l-14.71-10.96a5.22 5.22 0 0 1-2.06-4.83l1.2-9.59a7.5 7.5 0 0 0-6.8-8.4L186 357.61a11.61 11.61 0 0 1-7-3.2l-20-19.34a11.62 11.62 0 0 1-3.53-8.32v-27.92a5.21 5.21 0 0 1 1.29-3.43l22.81-26.06a7.5 7.5 0 0 0 1.85-4.66l.24-6.34a5.24 5.24 0 0 1 3.11-4.58l17.84-7.85 33.53-.83a1.56 1.56 0 0 1 1.55 1.33 16.47 16.47 0 0 0 11.09 13.06l24 8A13.25 13.25 0 0 0 290 253.15l30.11-2.38a20.21 20.21 0 0 0 18.22-24.11l-.85-4.24a13.84 13.84 0 0 0-14.75-11.09L307 212.66l-2.39-2.66 20.83-20.83a7.5 7.5 0 0 0-10.61-10.61l-25.2 25.2-8.48 3.57-23.58-18a7.5 7.5 0 0 0-6.83-1.18L218 198.61a20.06 20.06 0 0 0-2.73 1.1l2.32-9.79 25.93-19 26.76-4a7.5 7.5 0 0 0 6.33-6.37l3-21.58a7.5 7.5 0 0 0-1.54-5.7l-11-13.9a7.5 7.5 0 0 0-12 .35l-8.39 12-8.78-.71 14.6-27.83h15.1l11.4 20.55a7.5 7.5 0 0 0 13.45-.69L303 98.36a13.82 13.82 0 0 0-1.31-13.26 175.93 175.93 0 0 1 68 35.42 7.5 7.5 0 0 0 9.69-11.52A191.88 191.88 0 0 0 109 379.38a7.5 7.5 0 0 0 11.48-9.66A176.88 176.88 0 0 1 248.8 79.28a178.11 178.11 0 0 1 30 1.32L289 93.11l-4.25 10-6.12-11a7.5 7.5 0 0 0-6.63-3.93h-24a7.5 7.5 0 0 0-6.64 4l-16.89 32.2a14.74 14.74 0 0 0 11.85 21.54l13.46 1.1a7.51 7.51 0 0 0 6.75-3.17l5.08-7.24 2.75 3.48-1.81 12.85-23.05 3.42a7.5 7.5 0 0 0-3.33 1.37l-29.66 21.71a7.51 7.51 0 0 0-2.87 4.32l-3.22 13.6-10.07-1.23a13.81 13.81 0 0 0-14.67 8.93l-6.19 16.67a13.86 13.86 0 0 0 9.16 18.14l.22.06-.21.09a20.33 20.33 0 0 0-12.06 17.75l-.14 3.68-21.05 24.06a20.2 20.2 0 0 0-5 13.31v27.91a26.7 26.7 0 0 0 8.11 19.11l20 19.34a26.64 26.64 0 0 0 16.17 7.36l59.11 5.1-.23 1.86a20.24 20.24 0 0 0 8 18.73L262 406l-.7 2.25a20.14 20.14 0 0 0 6.17 21.35l3.05 2.65c-2.44.2-4.89.36-7.35.46a176.32 176.32 0 0 1-120.92-41.24 7.5 7.5 0 1 0-9.63 11.53 191.13 191.13 0 0 0 123.32 44.91c2.61 0 5.24-.05 7.86-.16A191.88 191.88 0 0 0 403 132.62zm-183.61 83.09a5.21 5.21 0 0 1 3.16-2.81l16.89-5.39 14.82 18.18-1.72 5.08a7.5 7.5 0 1 0 14.21 4.81l1.92-5.68a13.78 13.78 0 0 0-2.39-13.19l-4-4.89 13.21 10.08a7.5 7.5 0 0 0 7.46.95l9.46-4 5.83 6.57a7.51 7.51 0 0 0 6.24 2.49l18.52-1.55.65 3.23a5.21 5.21 0 0 1-4.7 6.22l-32.1 2.54a13.26 13.26 0 0 0-12.19 14l-21.2-7.07a1.54 1.54 0 0 1-1-1.25 16.58 16.58 0 0 0-16.32-13.91h-.41l-23.06.57zm-30-4.58l10.19 1.24a13.83 13.83 0 0 0 5-.29l-7.87 17.37L184 225.8zm243.34 52.07a176.34 176.34 0 0 1-51.66 117.86 178.2 178.2 0 0 1-15.17 13.52 71.08 71.08 0 0 0 7-12.56l34.46-79.7a7.5 7.5 0 0 0-7.36-10.44l-3.36.25L415.32 255a13.92 13.92 0 0 0-4.48-17.62l-1.64-1.14.36-.57a5.21 5.21 0 0 1 8.05-.93l15.13 14.85c.17 4.5.17 9.05-.01 13.61z"/> 
    </symbol></svg>